<?xml version="1.0" standalone="no"?>
<!DOCTYPE svg PUBLIC "-//W3C//DTD SVG 1.1//EN" "http://www.w3.org/Graphics/SVG/1.1/DTD/svg11.dtd" >
<svg xmlns="http://www.w3.org/2000/svg" xmlns:xlink="http://www.w3.org/1999/xlink" version="1.1">
<metadata>
Created by FontForge 20190801 at Fri Nov 22 09:49:21 2019
 By Jimmy Wärting
Copyright (c) 2019 by Creatype Studio Co. All rights reserved.
</metadata>
<defs>
<font id="Twister" horiz-adv-x="249" >
  <font-face 
    font-family="Twister"
    font-weight="400"
    font-stretch="normal"
    units-per-em="1000"
    panose-1="0 0 0 0 0 0 0 0 0 0"
    ascent="800"
    descent="-200"
    x-height="288"
    cap-height="869"
    bbox="-358.385 -535 878 971"
    underline-thickness="0"
    underline-position="0"
    unicode-range="U+000A-E003"
  />
<missing-glyph horiz-adv-x="527" 
d="M477 700v-700h-427v700h427zM263 371l186 309h-371zM71 650v-601l180 301zM79 21h370l-185 308zM457 47v605l-181 -302z" />
    <glyph glyph-name="uniE001" unicode="tt" horiz-adv-x="414" 
d="M244 -528q-6 3 -10 9t-5.5 22.5t-2 49t-0.5 89.5q0 76 4 174t10 200t14 200.5t17 175.5q3 27 5 46t2 20l-9 -23.5t-22.5 -61t-30 -83t-32.5 -89.5t-29 -81t-20 -57q-10 -29 -25.5 -77t-27.5 -89q-12 -40 -22.5 -73t-14.5 -40q-12 -25 -30 -25q-20 0 -28 29q-7 25 -9 79
t0 120.5t7.5 138.5t14.5 133q2 16 6 39t8 44.5t8 38.5t5 21t-2 4q-9 0 -37.5 -9.5t-61.5 -21.5t-62 -23.5t-38 -16.5q-13 -8 -21 -8q-14 0 -17 13t8 23q6 5 28.5 15.5t54 23t66.5 26t67 23.5q11 3 20 6.5t11 5.5q4 4 11 23q11 27 20 38t21 11h4q21 -1 24 -34q3 -15 6 -15h3
q3 2 20.5 6.5t40.5 9.5q23 6 39.5 10.5t17.5 6.5q1 1 7.5 17.5t15.5 39.5q13 35 21 55.5t14 30.5t11.5 12.5t12.5 2.5q21 0 21 -25q0 -5 -2.5 -21.5t-5.5 -36.5q-3 -19 -5.5 -34.5t-2.5 -17.5t4 -2q5 0 18 2.5t41 8.5q33 7 73 15t78.5 15.5t70.5 13t50 7.5q27 4 47 4
q26 0 35 -11q11 -13 3.5 -26.5t-31.5 -24.5q-14 -7 -19 -7q-4 0 -9 3q-8 3 -10 11q0 7 -5 7q-7 0 -41 -6t-80.5 -15t-98.5 -19.5t-94 -19.5l-40 -9l-2 -13q-2 -10 -5 -38t-7 -63.5t-7.5 -72.5t-5.5 -64q-8 -94 -14 -188t-10.5 -180t-6.5 -160.5t-1 -129.5l1 -100l-8 -6
q-7 -6 -10 -6q-2 0 -3.5 1t-5.5 3zM87 62q5 12 13.5 36.5t19.5 56t24 67.5t25 71q16 43 31 85.5t30 85.5q-1 1 -17 -3t-39 -10q-35 -9 -54.5 -14.5t-28.5 -8.5t-11.5 -5t-3.5 -5q-4 -12 -10.5 -44t-13 -72.5t-12 -83t-8.5 -75.5q-3 -36 -5.5 -80t-3.5 -84t-1 -69t2 -36
q2 -10 22 59q8 28 20.5 65.5t20.5 63.5z" />
    <glyph glyph-name="uniE002" unicode="st" horiz-adv-x="453" 
d="M288 -463q-6 4 -12.5 21t-9.5 36q-1 11 -2 37t-1 57.5t1 64t2 55.5q6 84 14.5 170.5t19.5 168.5t24 156t27 134q6 24 9.5 41t1.5 15q-1 -1 -16 -28t-36 -65t-44 -80t-40 -74q-7 -12 -16.5 -29.5t-20 -38.5t-21.5 -42.5t-21 -40.5l-47 -93l6 -29q6 -32 6 -73t-7 -73
q-7 -33 -18.5 -62t-26 -50t-30.5 -33t-31 -12q-3 0 -11 2q-38 13 -27.5 81.5t70.5 202.5q8 19 13.5 33.5t5.5 16.5t-4.5 14.5t-11.5 28.5q-13 29 -21 47.5t-13 31.5t-7.5 22t-3.5 18q-9 65 41 114q23 23 45 23q23 0 35 -29q11 -28 -13 -31h-4q-8 0 -18 14q-3 3 -4 3
q-4 0 -8.5 -4.5t-9 -10t-8 -11t-4.5 -8.5q-13 -26 -9 -52t29 -79l18 -36l48 93q35 66 77.5 145t96.5 176q7 12 12.5 22.5t10.5 18.5q5 9 9 17q-14 0 -43 -2.5t-64.5 -6.5t-74 -10t-71.5 -12.5t-57 -13.5t-31 -14t-17 -7q-11 0 -18.5 9t-1.5 21q4 12 31 22t65.5 19t83.5 16
t85.5 12t71.5 8.5t41 4.5l27 2l32 53q24 41 36.5 56t20.5 15q7 0 15 -8t8 -15q0 -3 -5 -17.5t-11 -32.5q-7 -18 -11.5 -31t-4.5 -14h7q8 0 23.5 0.5t35.5 1.5q37 2 73 2h73q41 -1 68 -3t44 -5.5t26 -10t14 -15.5q3 -7 3 -10.5t-2 -10.5q-4 -8 -11 -12.5t-14 -4.5
q-11 0 -14 9q-2 8 -11 10.5t-36 5.5q-10 2 -33.5 2h-54.5q-25 0 -52 -0.5t-51.5 -1t-45.5 -1t-33 -1.5l-25 -2l-10 -36q-32 -114 -56.5 -273.5t-42.5 -363.5q-3 -35 -4.5 -81t-1.5 -89.5t1.5 -78t4.5 -45.5q4 -13 4 -18.5t-2 -10.5q-5 -10 -18 -10q-6 0 -11 3zM18 -268
q23 27 36.5 73.5t11.5 90.5l-1 29l-20 -50q-10 -27 -19 -54t-15 -49.5t-8 -36.5t2 -14q2 0 13 11z" />
    <glyph glyph-name="uniE003" unicode="ll" horiz-adv-x="387" 
d="M215 -371q-5 5 -6 11.5t-3 24.5q-1 21 2 80t9 154q3 48 4 66t-1 18q-1 0 -13 -17q-59 -97 -114 -97q-85 0 -103 195q-3 34 -7 39q-5 5 -5.5 14.5t4.5 16.5q5 5 5 40q0 97 22 199.5t61 189.5q35 78 70.5 122.5t63.5 44.5q51 0 41.5 -91t-77.5 -262q-15 -38 -32.5 -76.5
t-34.5 -72.5t-32.5 -60t-26.5 -40q-4 -5 -6 -8t-2.5 -10.5t1 -22l4.5 -43.5q1 -9 4.5 -30.5t9.5 -43.5t16 -39t25 -17q9 0 21 9q19 14 40 44.5t50 86.5l27 53l4 47q10 109 23 198.5t29 155.5t33.5 106.5t36.5 51.5q9 6 24 6q10 0 16 -3q20 -11 23.5 -60.5t-11.5 -120.5
q-17 -77 -46.5 -166t-69.5 -183l-17 -41l-7 -88q-10 -131 -15 -224t-4 -126q1 -17 0 -22.5t-5 -10.5q-6 -6 -14 -6q-9 0 -17 8zM60 241q21 44 41 92t37.5 94t31 86t19.5 67q7 27 10.5 57t1.5 38l-2 8l-10 -9q-4 -4 -12.5 -15t-16.5 -23q-41 -61 -71 -143.5t-44 -172.5
q-2 -14 -4.5 -32.5t-4.5 -36t-3 -32.5t-1 -22v-8l5 7q2 3 8.5 16zM310 303q10 28 19 57.5t17 58t14 54t9 43.5q2 12 4 27t3 29t1 25t-1 14q-1 5 -2 5t-7 -10q-11 -23 -24 -66.5t-21 -88.5q-2 -9 -3.5 -19.5t-3.5 -16.5q-3 -17 -6.5 -40t-7.5 -53q-2 -15 -4 -29t-3 -19
q-1 -9 0 -9q4 0 16 38z" />
    <glyph glyph-name=".notdef" horiz-adv-x="527" 
d="M477 700v-700h-427v700h427zM263 371l186 309h-371zM71 650v-601l180 301zM79 21h370l-185 308zM457 47v605l-181 -302z" />
    <glyph glyph-name="uni0000" horiz-adv-x="0" 
 />
    <glyph glyph-name="uni0000" horiz-adv-x="0" 
 />
    <glyph glyph-name="nonmarkingreturn" 
 />
    <glyph glyph-name="space" unicode=" " 
 />
    <glyph glyph-name="uni000D" unicode="&#xd;" horiz-adv-x="0" 
 />
    <glyph glyph-name="exclam" unicode="!" horiz-adv-x="182" 
d="M51 -115q-11 4 -13.5 12.5t2 16.5t14.5 14.5t23 6.5q7 0 15.5 -3.5t8.5 -12.5q0 -6 -5 -14q-5 -6 -8 -13q-2 -4 -9.5 -8t-13.5 -4q-4 0 -14 5zM75 50q-14 15 -12.5 59.5t18.5 134.5q11 58 26 125t32 136t35 135.5t35.5 123.5t33 101t26.5 68q11 22 17.5 30t16.5 8
q13 0 16.5 -8t3.5 -37q0 -23 -1.5 -29t-6.5 -9q-6 -4 -14 -4q-5 1 -8.5 -5.5t-13.5 -35.5q-17 -53 -38 -128.5t-42 -158t-40 -163t-31 -143.5q-6 -30 -10 -52.5t-6.5 -40.5t-3.5 -33t-1 -31q-2 -39 -5 -44q-5 -5 -12 -5q-10 0 -15 6z" />
    <glyph glyph-name="quotedbl" unicode="&#x22;" horiz-adv-x="236" 
d="M55 468q-8 9 -6.5 27t14.5 58q5 18 9 31.5t3 14.5q-1 0 -2 -1q-3 0 -6 -3q-6 -5 -15 -5q-13 0 -18.5 11t6.5 22q4 4 12 9t16 9t16 7t12 3q11 0 15.5 -3t9.5 -11q2 -4 3 -8.5t-0.5 -13t-5.5 -23t-11 -39.5q-9 -32 -11 -43t0 -17q5 -14 -3.5 -23t-20.5 -9q-10 0 -17 7z
M148 476q-7 8 -6 26q1 11 7.5 25.5t23.5 49.5q29 57 26 61q-7 11 0 23.5t23 19.5q8 3 15 3q15 0 20 -14q2 -4 2.5 -7.5t-3 -12.5t-12 -26l-24.5 -49q-11 -22 -18 -36.5t-11 -25t-5.5 -17.5t-1.5 -15q-1 -5 -7 -9.5t-13 -4.5q-8 0 -16 9z" />
    <glyph glyph-name="numbersign" unicode="#" horiz-adv-x="752" 
d="M333 -116q-2 2 -3.5 5.5t-3.5 5.5q-3 9 15 57.5t47 112.5q11 22 15.5 35t2.5 13t-16.5 -4t-30.5 -9t-29.5 -9.5t-14.5 -5.5q-2 -2 -8.5 -16.5t-14 -32.5t-14.5 -36t-9 -26q-2 -10 -4 -21t-1 -17q1 -25 -17 -25h-3q-49 5 3 132q4 10 6 17q2 4 3 7q-1 0 -16 -5t-36 -13
q-50 -19 -81 -34.5t-47 -30.5t-27 -15q-8 0 -14 10q-3 6 -3 9t4 11q10 21 63 49.5t143 60.5l39 13l42 84q27 53 33.5 67.5t2.5 14.5h-2q-17 -4 -53.5 -13.5t-76 -22t-73 -26.5t-45.5 -27q-8 -8 -15 -8t-14 7q-14 15 1 31t63 37q34 15 76 28.5t104 30.5l71 19l29 51
q108 188 153 219q9 8 21 8q11 0 18 -7.5t7 -20.5q0 -23 -17 -23q-4 0 -6 1q-2 0 -2.5 0.5t-1.5 0.5q-5 0 -11.5 -7.5t-23.5 -30.5q-11 -15 -29 -44t-35 -58t-29 -51t-11 -23t13.5 1.5t28.5 5.5t30 6t18 4q2 2 14.5 20t27.5 44q64 107 103.5 161t59.5 62q3 2 10 2
q16 0 18 -15q1 -6 -3.5 -12.5t-18.5 -22.5q-11 -11 -24 -27t-21 -30q-10 -15 -28 -43.5t-34.5 -56t-28.5 -48.5t-11 -21q0 -1 13 0.5t30 4.5q23 4 46 5.5t55 1.5h34t19 -1t11 -2t9 -4q19 -11 22 -26.5t-13 -23.5q-4 -2 -6 -2q-4 0 -14 7q-15 11 -50 11q-12 0 -42 -3t-61 -7
t-56.5 -8.5t-28.5 -7.5q-1 -1 -7.5 -12.5t-16 -28.5t-20 -36t-19.5 -36t-14.5 -28l-5.5 -11q5 1 12 2q5 1 12 1.5t15 2.5q20 3 42.5 5t42.5 2q17 0 32 -1.5t24 -4.5q21 -6 26 -17.5t-9 -21.5q-4 -3 -12 -3q-4 0 -8.5 0.5t-12.5 1.5t-16.5 1.5t-18.5 0.5q-42 0 -93 -9
q-25 -4 -38 -6.5t-19.5 -6.5t-10.5 -11t-11 -21q-9 -17 -18.5 -38t-19.5 -43t-18.5 -43.5t-15.5 -39.5q-7 -17 -13.5 -30.5t-8.5 -16.5q-6 -7 -14 -7q-7 0 -12 5zM395 157l44 12l9 18q4 8 15.5 30.5t25.5 46.5q7 13 12 23.5t10 18.5l9 18q-1 1 -14.5 -1.5t-32.5 -7.5
q-30 -6 -39 -9.5t-13 -8.5q-2 -4 -15 -28t-29 -54q-22 -42 -28.5 -57.5t-3.5 -14.5t17.5 5t32.5 9z" />
    <glyph glyph-name="dollar" unicode="$" horiz-adv-x="387" 
d="M155 -191q-14 13 -17 54l-2 27l-24 -17q-54 -39 -86 -39q-13 0 -24.5 7.5t-13.5 21.5q-2 9 2 25t12.5 36t21 43t26.5 44q9 14 23.5 31t29.5 32.5t28.5 27.5t20.5 15q15 7 16 13q2 8 4.5 24.5t5.5 33t5 29.5l2 13q-1 0 -15 -5t-34 -13q-32 -13 -49.5 -19t-28.5 -6
q-13 0 -22 11q-12 13 -6.5 39t30.5 75q21 40 46 81.5t50.5 77.5t48.5 64t40 41q11 9 15 14.5t8 16.5q21 77 30 88q6 9 15 9q8 0 14 -7q6 -6 5 -15t-9 -34q-11 -29 -11 -36t9 -11q23 -10 29 -43q2 -11 2 -25.5t-3 -43.5q-2 -29 -2 -41t2 -17q8 -13 1.5 -22.5t-16.5 -9.5
q-11 0 -18 10q-7 9 -8.5 27t1.5 57q2 36 0.5 51t-6.5 15t-5 -1t-3.5 -16.5t-8.5 -37.5q-5 -24 -12.5 -59t-14 -68t-11.5 -56.5t-5 -24.5t9 -1.5t21 -0.5q20 0 27.5 -1.5t15.5 -7.5q14 -9 19.5 -21.5t5.5 -35.5q0 -26 -12 -61.5t-32 -74t-46 -76t-54 -67.5l-12 -13l-2 -39
q-1 -36 2 -58q3 -13 3 -17.5t-4 -9.5q-4 -8 -16 -8q-8 0 -13 5zM80 -95q10 7 22.5 16.5t20.5 17.5l19 19l8 52q2 21 4 36.5t1 16.5t-7 -4.5t-14.5 -14.5t-17.5 -20t-16 -20q-20 -28 -38.5 -61.5t-25.5 -54.5q-1 -6 0 -6q3 0 10 3q5 2 15 8t19 12zM215 42q35 51 57 102.5
t24 84.5q0 14 -4 17.5t-18 3.5q-10 0 -23.5 -2.5t-15.5 -4.5t-10 -44t-17 -100q-4 -24 -7.5 -44.5t-4.5 -25.5v-10q1 0 6 6.5t13 16.5zM119 253q16 7 32.5 13t24.5 9l18 6q1 0 5 19t9 46q5 26 12 59.5t12 53.5q5 21 8 35.5t3 15.5q0 3 -10.5 -10t-25 -34t-31 -46t-28.5 -45
q-15 -25 -29 -49.5t-24 -44t-15 -31.5t-2 -12l12 5l13.5 4.5t15.5 5.5z" />
    <glyph glyph-name="percent" unicode="%" horiz-adv-x="568" 
d="M8 -345q-12 13 -6 49t31.5 102.5t73 167.5t119.5 244q74 146 128.5 248.5t101.5 180.5q20 32 34 56t14 25q0 3 -27 -8t-59 -27q-20 -10 -41.5 -22.5t-41 -25t-35 -23.5t-23.5 -19l-14 -15v-34q0 -30 -4.5 -48t-15.5 -35q-8 -12 -21.5 -21.5t-24.5 -9.5q-17 0 -28.5 15
t-11.5 37q0 24 16 64t41 78t56 65.5t60 27.5q10 0 20 -7l9 -6l46 22q83 41 117 41q8 0 18 -4q24 -10 16 -39q-1 -6 -4 -12t-9.5 -18.5t-19.5 -33.5t-34 -56q-25 -41 -57.5 -100t-69 -128t-74 -143.5t-73 -146t-66 -137t-51.5 -115.5q-46 -105 -55 -159q-4 -22 -8.5 -29
t-14.5 -7q-6 0 -12 6zM211 505q7 16 7 32l-1 17l-7 -22q-5 -16 -7 -28t1 -12l2 4q3 3 5 9zM317 -60q-29 26 2 91q4 9 11 21t16 23.5t20 19t23 7.5q11 0 24 -14t16.5 -24.5t0.5 -24.5q-3 -13 -11.5 -31t-21 -35t-27.5 -29t-31 -12q-14 0 -22 8zM366 5q7 11 11.5 19t4.5 10
q0 6 -8 6q-4 0 -6 -3q-4 -6 -8.5 -15.5t-8 -18.5t-4.5 -16t1 -7q1 0 6 7.5t12 17.5z" />
    <glyph glyph-name="ampersand" unicode="&#x26;" horiz-adv-x="466" 
d="M401 -189q-21 5 -54 22.5t-58 36.5q-12 9 -21.5 16t-11.5 8q-5 3 -48 -30q-35 -26 -52.5 -36t-29.5 -10q-9 0 -17 4q-27 11 -29 53.5t21 109.5q4 12 9.5 26.5t9.5 22.5l9 20l-13 26q-38 85 -34.5 167t51.5 177q34 69 79.5 124t93.5 87q46 31 80 31q43 0 53 -48
q8 -41 -27 -127t-124 -238q-12 -20 -24 -41.5t-23.5 -41.5t-20.5 -36.5t-14 -26.5l-26 -48l5 -10q3 -5 9.5 -14.5t15 -20t17 -21.5t14.5 -19l15 -16l9 7q22 16 32 22t17 6q21 0 21 -22q0 -7 -4 -11.5t-18 -15.5q-10 -7 -16.5 -12.5t-6.5 -6.5q0 -2 9 -9t21.5 -16t25.5 -18
t21 -13q23 -11 41 -16.5t41 -7.5q17 -2 22 -3.5t10 -7.5t5 -8.5t-3 -8.5q-4 -7 -8.5 -8t-25.5 -2q-12 0 -26 1t-22 3zM176 -103q18 13 30.5 23t12.5 11q0 4 -7 9q-2 2 -11 12.5t-18 22.5t-16 20.5t-9 9.5q-1 0 -5.5 -11.5t-10.5 -28.5q-8 -25 -11 -39.5t-4 -31.5
q-1 -30 1 -30t16 9.5t32 23.5zM170 137q6 11 24 42.5t37 64.5q23 40 40 69.5t29.5 52t21.5 40t17 32.5q28 56 43.5 104t12.5 67q-2 8 -4 9.5t-10 1.5q-14 0 -34.5 -11.5t-43.5 -31.5t-46.5 -47t-44.5 -58q-51 -75 -72 -151.5t-9 -139.5q2 -9 5 -21.5t6.5 -24t6.5 -19.5t4 -8
t5.5 8.5t11.5 20.5z" />
    <glyph glyph-name="quotesingle" unicode="'" horiz-adv-x="181" 
d="M57 456q-6 8 -7.5 12.5t0.5 19.5q1 8 4 24t6 30t5.5 25t2.5 13t-12 2h-4q-22 0 -20 25q0 5 7.5 13t18 16t21 13.5t16.5 5.5q8 0 16 -8t9 -17q0 -4 -4 -26t-10 -51q-8 -43 -10 -57t0 -18q8 -12 2 -22t-21 -10q-11 0 -20 10z" />
    <glyph glyph-name="parenleft" unicode="(" horiz-adv-x="299" 
d="M73 -227q-71 71 85 530q57 167 112.5 298t99.5 203q21 33 44.5 64.5t34.5 41.5q14 13 29 13q11 0 17 -8.5t3 -23.5q-2 -13 -7 -18t-16 -7t-23.5 -17t-37.5 -57t-54.5 -103.5t-59.5 -134t-59.5 -152.5t-55 -158.5t-45.5 -151.5t-32 -132q-3 -14 -5 -25t-2.5 -21.5
t-1 -22.5t-0.5 -29q0 -34 1 -45.5t4 -16.5q9 -13 4.5 -25.5t-17.5 -12.5q-7 0 -18 11z" />
    <glyph glyph-name="parenright" unicode=")" horiz-adv-x="296" 
d="M-16 -376q-5 5 -4 16.5t11 33.5q12 27 30.5 82.5t42 129.5t50.5 162.5t54 182.5t53.5 188.5t48.5 179.5q26 100 35.5 165.5t1.5 93.5q-3 11 -6 11t-8 -4q-7 -5 -14 -5q-8 0 -14 5.5t-6 14.5q0 7 10.5 16t21.5 12q6 2 11 2q10 0 19.5 -5t14.5 -13q40 -55 -16 -276
q-5 -21 -19 -73t-33.5 -123t-43 -155.5t-49 -170t-50.5 -167t-47.5 -146t-40 -107.5t-28.5 -51q-4 -4 -12 -4t-13 5z" />
    <glyph glyph-name="asterisk" unicode="*" horiz-adv-x="306" 
d="M134 427q-4 6 -4 20t5 51l2 16l-22 -23q-29 -32 -44 -32q-7 0 -14 7q-4 4 -4.5 8t3.5 11t13 18t24 28q17 20 28 34t10 15t-11.5 3t-23 4t-24 3.5t-15.5 1.5q-6 0 -10 -2q-7 -3 -12 -3q-6 0 -12 6q-6 7 -6 16t8 16q5 5 8.5 6t11.5 1q10 0 24.5 -0.5t30 -2t29.5 -4t23 -5.5
q3 -1 6 8.5t11 39.5q5 20 10 37t7 22q6 15 20 15q13 0 21 -17q3 -10 -3 -18q-2 -4 -4.5 -11.5l-4.5 -13.5l-5 -16l40 40q23 25 34.5 34.5t19.5 9.5q3 0 11 -4q19 -13 -6 -36q-5 -5 -20.5 -22t-32.5 -35l-40 -45l27 -7q51 -14 56 -29q4 -17 -9 -24q-4 -3 -9 -3t-23 6
q-10 3 -23.5 7t-21.5 6l-22 6l-2 -9q-2 -14 -5.5 -34.5t-5.5 -43.5q-5 -40 -10.5 -52t-18.5 -12q-9 0 -15 8z" />
    <glyph glyph-name="plus" unicode="+" horiz-adv-x="412" 
d="M162 21q-10 11 -7 34t20 67q5 11 8 20t2 9q0 1 -11 -2.5t-25 -8.5q-22 -7 -30 -11t-13 -10q-7 -10 -17 -10q-8 0 -14.5 6t-6.5 17q0 12 9 21q5 4 16 9.5t26 11t31 11t31 9.5l27 7l11 21q14 28 29 54.5t22 33.5q8 9 20 9q8 0 13 -5q5 -7 4 -17.5t-8 -17.5q-4 -3 -10.5 -14
t-13.5 -23l-15 -29h25q22 0 35 -3t25 -11q23 -16 15 -32q-3 -11 -16 -11q-6 0 -19 5q-12 5 -23 6t-24 1q-15 0 -23 -0.5t-13 -4.5t-8 -11t-8 -21q-16 -41 -22 -61t-8 -44q0 -4 -6 -8.5t-12 -4.5t-16 8z" />
    <glyph glyph-name="comma" unicode="," horiz-adv-x="223" 
d="M39 -86q-6 8 -6 16t12 44t29 79l17 40l-12 -12q-10 -11 -18 -11q-7 0 -14 7q-9 8 -6.5 17.5t19.5 24.5q44 40 64 40q9 0 17 -8q4 -4 5.5 -8.5t0 -13t-6 -22t-13.5 -37.5q-8 -20 -18.5 -49t-18.5 -50q-14 -39 -21 -51t-17 -12q-5 0 -13 6z" />
    <glyph glyph-name="hyphen" unicode="-" horiz-adv-x="371" 
d="M61 158q-2 3 -3.5 7t-1.5 8q0 11 10 15t48 8q49 5 95 8.5t75 3.5q23 0 29 -1.5t12 -6.5q7 -8 7.5 -13t-7.5 -13q-5 -5 -12.5 -6.5t-36.5 -2.5q-18 -1 -43.5 -2.5t-52 -3t-50 -3t-37.5 -2.5q-5 -1 -9.5 -1h-7.5q-6 0 -9 1.5t-6 3.5z" />
    <glyph glyph-name="period" unicode="." horiz-adv-x="191" 
d="M31 -40q-8 5 -7.5 17.5t8.5 22.5q10 11 20 15t28 4q14 0 18 -1t8 -6q4 -8 4 -13q1 -7 -10.5 -17.5t-25.5 -18.5q-18 -8 -28 -8q-8 0 -15 5z" />
    <glyph glyph-name="slash" unicode="/" horiz-adv-x="404" 
d="M48 -100q-6 6 -5.5 23.5t7.5 35.5q39 105 248 419q158 237 228 316q21 24 33.5 34.5t20.5 10.5q7 0 14 -7q5 -5 6.5 -9t0.5 -10q-5 -19 -22 -26q-11 -4 -40 -41.5t-90 -124.5q-70 -100 -133.5 -197t-113 -178t-81 -140t-37.5 -83q-3 -18 -9 -23q-4 -6 -13 -6q-8 0 -14 6z
" />
    <glyph glyph-name="zero" unicode="0" horiz-adv-x="303" 
d="M83 -43q-10 4 -19 16.5t-12 25.5q-3 17 -3 33t5 48q5 38 14 80t20 82.5t23.5 77t25.5 63.5q10 24 8 24t-8.5 -6.5t-14 -15.5t-14 -18t-9.5 -15q-4 -6 -6 -13t-2 -11q0 -9 -6 -14.5t-14 -5.5t-14 6q-5 5 -5 20t5 27q8 18 23 37.5t34.5 37t41.5 31.5t42 21q18 5 23 10
q2 2 8 2q7 0 31 -6q61 -17 67 -98t-45 -207q-16 -41 -36 -78.5t-40.5 -67.5t-40 -51t-36.5 -30q-18 -8 -31 -8q-9 0 -15 3zM117 7q15 11 33.5 35t37.5 56.5t36.5 70.5t30.5 76q26 75 26 134q-1 35 -9 51.5t-27 20.5q-2 0 -3.5 0.5t-2.5 0.5q-11 0 -25 -21.5t-27 -48.5
t-23 -52.5t-13 -34.5q-14 -41 -25.5 -87.5t-19.5 -87.5t-10.5 -71.5t1.5 -40.5q3 -8 6 -8q4 0 14 7z" />
    <glyph glyph-name="one" unicode="1" horiz-adv-x="204" 
d="M107 -119q-12 14 -12 52q0 16 3 51.5t8 82.5t12 101.5t15 109.5q5 29 7.5 49t2.5 22q0 3 -7 3h-5h-6q-8 0 -12 6q-5 7 -5 15q0 7 11 37.5t36 90.5q11 26 20.5 50.5t12.5 34.5t7 19t7 12q6 7 16 7q9 0 15 -6t6 -14.5t-6 -26.5q-5 -15 -10.5 -37t-11.5 -53.5t-12.5 -74.5
t-15.5 -101q-20 -140 -31.5 -244.5t-11.5 -147.5q0 -21 -1 -28t-5 -10q-5 -5 -14 -5t-13 5z" />
    <glyph glyph-name="two" unicode="2" horiz-adv-x="306" 
d="M50 -8q-7 9 -7 15q0 2 5 10t13 16q18 20 41 67.5t45.5 106t41 119.5t25.5 107q4 23 4 48.5t-4 32.5l-4 7l-12 -6q-6 -3 -14.5 -10.5t-17 -16.5t-16 -18.5t-10.5 -16.5q-5 -8 -5.5 -12t2.5 -10q5 -11 -1.5 -18.5t-16.5 -7.5t-17 8q-16 17 -3.5 48.5t48.5 66.5q35 35 65 35
q26 0 40 -28.5t9 -82.5q-3 -32 -14.5 -79.5t-27.5 -98.5t-35 -101t-38 -87q-5 -8 -7 -14t-1 -6q0 -1 6 0.5t14 4.5q32 11 60.5 16.5t50.5 5.5q14 0 31 -4t17 -22q0 -11 -9 -14.5t-35 -3.5q-28 0 -50 -5q-20 -5 -42 -12.5t-42 -15t-35 -14.5t-21 -12q-9 -6 -17 -6
q-10 0 -16 8z" />
    <glyph glyph-name="three" unicode="3" horiz-adv-x="369" 
d="M114 -52q-14 2 -20 7t-9 14q-10 30 40 52q16 8 29 8q17 0 17 -17q0 -9 3 -9t12.5 6t21 14.5t23 19t20.5 19.5q43 45 70 97t30 95q2 32 -12.5 48.5t-49.5 22.5q-7 1 -15 1.5t-18 0.5q-18 0 -39.5 -1.5t-43.5 -5.5q-15 -2 -25 -3.5t-18 -1.5q-15 0 -26 8q-6 5 -8 9.5
t-2 12.5q0 9 3.5 16t14.5 23l18 25l-8 6q-8 6 -9 6q-2 0 -9 13q-14 24 -3 56t41 60q45 42 82 42q26 0 36 -21q13 -24 -4 -62t-70 -103q-14 -18 -23 -30.5t-7 -12.5t12.5 1.5t23.5 3.5q17 2 32 3.5t29 1.5q104 0 134 -63q5 -11 6.5 -19.5t1.5 -31.5q0 -43 -23.5 -97
t-61.5 -102t-86 -80.5t-96 -32.5q-10 0 -14 1zM176 465q23 30 35.5 55.5t4.5 25.5q-6 0 -20.5 -9t-26.5 -21q-33 -31 -30 -60q0 -3 6.5 -8.5t11.5 -7.5q1 0 6 7t13 18z" />
    <glyph glyph-name="four" unicode="4" horiz-adv-x="283" 
d="M197 -46q-7 8 -9.5 19t-2.5 33q0 23 7 68.5t18 96.5q4 17 6 29q2 7 3 12q-1 0 -6 -3t-13 -8t-20.5 -11.5t-26.5 -12t-27.5 -9t-24.5 -3.5q-37 0 -43 30q-1 8 1.5 17.5t11.5 23.5t26.5 34.5t44.5 50.5q54 59 97 116t69 105q17 32 30 32q5 0 7 -1q17 -8 9 -29
q-4 -11 -15 -30t-25 -41.5t-30.5 -46.5t-32.5 -45q-9 -12 -17.5 -22.5t-20.5 -24.5l-30 -35t-47 -53q-11 -11 -18 -20t-7 -11t3 -2q9 0 45 17q31 15 55.5 38.5t37.5 49.5q15 32 31 32q4 0 6 -1q8 -2 13 -11.5t2 -19.5q-1 -4 -4.5 -11.5t-7.5 -14.5q-10 -17 -26 -83
q-9 -37 -15.5 -66t-10.5 -52.5t-6 -44t-3 -40.5q-2 -38 -5 -47.5t-15 -9.5q-9 0 -14 5z" />
    <glyph glyph-name="five" unicode="5" horiz-adv-x="397" 
d="M107 -75q-41 23 20 88q26 27 54 42.5t49 15.5q17 0 25 -8q3 -3 6 -3t18 16q26 29 49 68.5t31 72.5q5 20 4 40t-8 29q-8 12 -18.5 16t-33.5 4q-52 0 -100.5 -20t-92.5 -47q-20 -12 -28.5 -16.5t-14.5 -4.5q-2 0 -8 2q-22 9 -14 33q7 20 73 127q16 25 27 43.5t12 20.5
q1 4 -5 4t-11.5 7t-5.5 15q0 17 38 30l23 7l17 25q7 11 13.5 19t8.5 10q6 3 11 3q11 0 17 -9q4 -6 4 -8.5t-5 -12.5q-7 -13 -6 -14q17 0 35 3q8 1 15 1.5t14 0.5q9 0 25 -1.5t32.5 -6t28.5 -12.5t12 -20q0 -16 -15 -16q-14 0 -39 7q-15 4 -37 4q-8 0 -20.5 -0.5t-26 -1
t-25.5 -2t-18 -3.5l-15 -4l-102 -171l33 15q40 20 75 29t80 9q36 -2 56.5 -12.5t34.5 -36.5q5 -11 6.5 -19t1.5 -31q0 -47 -22.5 -96t-57 -92.5t-77 -78t-81.5 -52.5q-25 -11 -46 -11q-10 0 -16 3zM205 8q10 7 16 12.5t5 5.5q-3 1 -13.5 -4t-21.5 -13t-21 -16t-13 -13
q-1 -2 1 -2q8 0 47 30z" />
    <glyph glyph-name="six" unicode="6" horiz-adv-x="310" 
d="M-84 -153q-45 22 115 185q16 17 25 26.5t13.5 15.5t6 10.5t2.5 10.5q3 25 13.5 59t24.5 70.5t31.5 72.5t35.5 66q11 17 30.5 43.5t43 51t49 42t49.5 17.5q10 0 20 -5q9 -6 11.5 -15t-2.5 -17q-6 -7 -12 -7t-10 1q-5 1 -11 1q-5 0 -9 -1.5t-10 -4.5q-74 -47 -149 -203
q-7 -15 -16 -36.5t-16.5 -42t-13 -36.5t-5.5 -19q0 -2 7 2.5t18 12.5q38 26 62 26q16 0 28 -12q25 -27 -3 -77q-6 -11 -20 -27.5t-31 -32t-35 -26.5t-33 -11q-26 0 -40 23l-6 11l-25 -28q-32 -33 -56.5 -62.5t-38.5 -52.5q-4 -6 -14.5 -20.5t-19.5 -14.5q-2 0 -9 4zM141 39
q9 5 21.5 17.5t24 26.5t20 26t8.5 17t-24.5 -11t-50.5 -39q-12 -11 -15 -15.5t-3 -12.5q0 -15 5 -15q4 0 14 6z" />
    <glyph glyph-name="seven" unicode="7" horiz-adv-x="348" 
d="M63 -123q-5 2 -10.5 11t-5.5 17q0 27 76 195l8 19l-18 -8q-22 -10 -32 -16t-15 -11q-7 -7 -17 -7q-9 0 -16 7q-10 16 3 31q3 2 13.5 8t26 14t34 17t36.5 17q7 3 12.5 11.5t19.5 37.5q5 9 13.5 27t19.5 41t24 49.5t25 51.5q25 51 42.5 87.5t17.5 37.5q-1 0 -16.5 -6.5
t-37.5 -17.5q-48 -23 -78 -33t-48 -10q-14 0 -24 8q-8 10 -6 17q3 14 11 16.5t20 2.5h6q14 0 40.5 10.5t84.5 38.5q64 32 76 32q11 0 19 -6.5t10 -16.5q1 -6 -1 -14t-9.5 -26t-22 -49t-39.5 -81q-30 -61 -47.5 -97t-25.5 -54.5t-9.5 -23.5t1.5 -4q51 15 87.5 23t53.5 8
q6 0 8 -1q19 -5 19 -19q0 -11 -9.5 -15.5t-45.5 -12.5q-35 -7 -69 -16t-60 -19l-17 -6l-29 -64q-29 -65 -48 -111.5t-21 -62.5q-2 -7 -6.5 -18t-14.5 -11q-1 0 -9 2z" />
    <glyph glyph-name="eight" unicode="8" horiz-adv-x="298" 
d="M112 -40q-35 16 -32.5 69.5t41.5 120.5q11 18 11.5 22.5t-4.5 6.5t-30 -23q-11 -11 -20 -17.5t-12 -6.5q-14 0 -19.5 10.5t2.5 21.5q6 10 21 25l16 17l-10 12q-12 14 -16.5 26.5t-4.5 32.5q0 30 16 61t40 59.5t51.5 53t49.5 40.5q51 38 88.5 58.5t57.5 21.5
q8 0 12.5 -1.5t9.5 -7.5q6 -7 7.5 -14t-2.5 -18t-13.5 -27.5t-25.5 -40.5q-12 -18 -30.5 -43t-39 -52t-41.5 -53.5t-39 -47.5q-17 -20 -28.5 -35t-11.5 -16q0 -3 2 -3q4 0 19 17q8 10 19.5 21.5t25.5 21.5t29 17t28 7q16 0 25 -8q12 -11 9 -24t-18 -13q-9 0 -13 4q-1 1 -3 1
q-5 0 -17.5 -8t-25 -18.5t-22.5 -20.5t-10 -13q0 -1 8 -5.5t19 -9.5q40 -20 55.5 -38t15.5 -46q0 -21 -12.5 -41.5t-30.5 -38.5t-38.5 -31.5t-37.5 -20.5q-9 -5 -22 -7t-25 -2q-17 0 -24 4zM174 11q32 17 56.5 41t27.5 42q2 12 -7.5 22t-34.5 22q-14 7 -22.5 11t-13.5 4
q-8 0 -12.5 -8.5t-14.5 -28.5q-40 -83 -26 -109q3 -6 13 -6q14 0 34 10zM147 277q22 26 52.5 64t58 74.5t46.5 63.5t19 30q0 2 -8 -2.5t-20.5 -12.5t-27 -18t-27.5 -20q-64 -48 -102 -96.5t-38 -82.5q0 -13 4.5 -24t9.5 -11q2 0 11.5 10t21.5 25z" />
    <glyph glyph-name="nine" unicode="9" horiz-adv-x="272" 
d="M71 -137q-9 4 -12 10.5t-2 22.5q2 17 16 60t39.5 109t62.5 153.5t83 193.5q5 11 -43 -38q-45 -46 -72 -66t-45 -20q-4 0 -10 2q-29 10 -26 43t35 82q25 38 62 69t71 45q15 6 45 8l28 1l15 18q7 8 13 14.5t8 8.5q5 4 12 4q9 0 16.5 -6.5t7.5 -16.5q0 -3 -3 -11.5t-8 -17.5
l-11 -20l6 -10q6 -10 6 -14t-8 -12q-7 -7 -11 -7q-2 0 -2.5 0.5t-1.5 0.5h-2q-3 0 -6.5 -4t-10.5 -18t-18.5 -40.5t-31.5 -71.5q-67 -155 -111.5 -267.5t-58.5 -164.5q-4 -14 -7 -24t-4 -12q-5 -5 -14 -5q-5 0 -7 1zM142 365q8 6 23 21.5t32 33.5t33.5 36t26.5 30l9 10
l-12 -3q-18 -5 -40 -21t-42.5 -37t-36.5 -43.5t-22 -39.5q-5 -11 -2 -11q4 0 31 24z" />
    <glyph glyph-name="colon" unicode=":" horiz-adv-x="154" 
d="M61 30q-7 4 -9 8t-3 14q0 11 8 22q9 9 9 15q0 12 10.5 25t23.5 13q8 0 14 -6.5t6 -17.5q0 -7 -4.5 -19.5t-12 -25.5t-16 -22.5t-17.5 -9.5q-2 0 -4 1t-5 3zM88 303q-16 16 6 38q17 17 34 17q15 0 21 -13q4 -8 -1.5 -19t-17.5 -20q-13 -10 -25 -10q-10 0 -17 7z" />
    <glyph glyph-name="semicolon" unicode=";" horiz-adv-x="218" 
d="M44 -68q-4 5 -5.5 12t1.5 20t10 33t20 51q10 23 16.5 39t6.5 17t-7 1q-11 0 -15 12.5t5 20.5q6 5 20 10.5t22 5.5q10 0 17 -9q8 -10 4.5 -27.5t-21.5 -62.5q-8 -21 -17 -46t-14 -39q-15 -45 -30 -45q-6 0 -13 7zM126 321q-7 3 -12 10.5t-5 14.5q0 14 11.5 26.5t24.5 12.5
q9 0 9 8t7.5 13.5t16.5 5.5q12 0 18 -8q15 -17 -8 -47q-28 -38 -53 -38q-3 0 -9 2z" />
    <glyph glyph-name="less" unicode="&#x3c;" horiz-adv-x="427" 
d="M297 79q-15 11 -44 25t-61 26t-62.5 20t-49.5 8q-2 0 -6.5 2.5t-7.5 4.5q-8 6 -9 17t6 18q2 2 23 15t49 30q59 35 107 67t69 49q19 16 30 16q5 0 10 -5q7 -7 5.5 -16.5t-12.5 -18.5q-7 -7 -23 -19t-36.5 -26.5t-44 -30.5t-46.5 -31q-24 -15 -40 -25.5t-15 -10.5
q2 0 14.5 -4t28.5 -9t33 -11t27 -10q84 -34 97 -64q4 -7 4 -10.5t-3 -9.5q-5 -11 -14 -11q-10 0 -29 14z" />
    <glyph glyph-name="equal" unicode="=" horiz-adv-x="413" 
d="M63 92q-17 26 42 48q93 34 157 34q48 0 66 -19q8 -7 7.5 -16.5t-8.5 -14.5q-3 -2 -5 -3t-5 -1q-2 0 -6 1t-10 3q-8 3 -19 4t-24 1t-37 -3t-49.5 -8.5t-47 -12.5t-29.5 -15q-6 -5 -16 -5q-12 0 -16 7zM101 211q-8 6 -7.5 16.5t8.5 17.5t35.5 15t62 14.5t69.5 11t57 4.5
q4 0 7 -0.5t6 -0.5q32 -4 46 -15.5t3 -26.5q-2 -3 -4.5 -4.5t-10.5 -1.5q-10 0 -43 3q-45 0 -99 -6.5t-96 -21.5q-7 -3 -13.5 -5t-8.5 -3q-4 -1 -12 3z" />
    <glyph glyph-name="greater" unicode="&#x3e;" horiz-adv-x="322" 
d="M93 71q-11 9 1 34q3 6 24.5 35.5t48.5 66.5t46.5 63t19.5 27t-14.5 5t-34.5 9q-57 14 -81.5 28t-24.5 32q0 7 7 13t14 6q10 0 19 -11q10 -9 28.5 -15t65.5 -17q35 -8 47 -13t17 -13q5 -7 5 -15.5t-7.5 -23.5t-25 -39t-46.5 -63q-20 -27 -37 -50.5t-22 -30.5
q-13 -19 -20.5 -26.5t-15.5 -7.5t-14 6z" />
    <glyph glyph-name="question" unicode="?" horiz-adv-x="339" 
d="M107 -111q-12 12 -10 25.5t17 18.5q2 1 6 1q13 0 29 -10t16 -19q0 -6 -6.5 -12t-14.5 -8q-5 -1 -10 -1.5t-9 -1.5q-2 0 -2.5 -0.5t-2.5 -0.5q-3 0 -13 8zM155 60q-17 5 -16 26t18 81q11 36 28 91t37.5 114.5t41 118t37.5 102.5q17 45 27.5 74.5t16.5 49t7.5 31.5t1.5 22
l-1 19l-13 1q-21 0 -48.5 -17.5t-55.5 -42t-52 -49.5t-36 -40q-100 -123 -105 -217q-1 -26 2 -35.5t14 -17.5q9 -6 22 -6q17 0 41 9l15 4.5t9 1.5q3 0 9 -2q7 -4 9 -13t-3 -16q-5 -5 -15.5 -9.5t-23 -7.5t-24.5 -5t-19 -2q-54 0 -73 47.5t7 125.5q18 55 58.5 115.5
t94.5 114.5t100 81.5t79 27.5q47 0 56 -55q2 -11 0 -27t-9 -41t-19.5 -60t-31.5 -84q-21 -55 -46.5 -127t-48.5 -141.5t-40 -126.5t-22 -81q-7 -35 -23 -35q-4 0 -6 1z" />
    <glyph glyph-name="at" unicode="@" horiz-adv-x="805" 
d="M157 -200q-62 13 -93 76q-13 28 -17.5 52.5t-2.5 67.5q3 62 22 131.5t52.5 137.5t79.5 130t101.5 109.5t119.5 75.5t134 28q41 0 80.5 -14.5t69.5 -42.5q41 -38 60 -89t16 -111t-28 -127t-72 -138q-51 -75 -99 -122t-82 -52q-26 0 -43 14.5t-23 39.5q-7 26 -3 73.5
t16 95.5q3 10 4 16.5t0 6.5t-9.5 -11t-19.5 -28q-50 -71 -78.5 -100.5t-48.5 -29.5q-8 0 -12 2q-26 11 -21 60t38 115q32 66 69.5 103.5t66.5 37.5q20 0 33 -19l7 -11l10 15q5 6 10 11t9 7q2 1 7 1q7 0 13.5 -3.5t8.5 -10.5q3 -7 1 -16t-11 -41q-15 -48 -26.5 -92.5
t-16.5 -70.5q-3 -20 -4 -40t0 -36.5t4 -28t8 -14.5q1 -1 4 -1q7 0 20.5 9.5t30.5 25t35.5 36.5t35.5 44q85 114 111 214.5t-9 175.5q-23 49 -66.5 74.5t-96.5 25.5q-84 0 -157 -44.5t-131 -112t-98.5 -147.5t-59.5 -152q-21 -82 -16.5 -143t33.5 -94q16 -17 31 -21t38 -4
q8 0 14 1t14 4t20 9t33 17q33 17 47.5 23.5t18.5 4.5q14 -5 16 -16.5t-9 -21.5q-4 -4 -20.5 -13t-35.5 -18.5t-37 -18t-26 -11.5q-20 -7 -42 -7q-14 0 -28 3zM338 83q8 11 25 34.5t34 46.5l39 56v21q0 23 -7 23l-8 -4q-15 -10 -33 -33t-34.5 -51.5t-29 -59t-16.5 -54.5
q-3 -14 -1 -14l1 1q1 0 3 2q3 3 11 12t16 20z" />
    <glyph glyph-name="A" unicode="A" horiz-adv-x="746" 
d="M475 -269q-85 33 -112 254q-4 34 -6 80t-1 96t3.5 100t7.5 92q2 16 3 27.5t0 11.5q0 2 -7 -14q-9 -25 -29 -72t-43 -99.5t-46.5 -102.5t-39.5 -82q-46 -93 -75 -132t-52 -39q-17 0 -26.5 11t-14.5 26t-6 31.5t-1 28.5v5q0 54 13 121.5t35 136.5t51.5 134t62.5 115
q11 16 28 37t38 40.5t43.5 33t44.5 13.5q19 0 33 -11q8 -6 10 -6q1 2 5.5 14.5t10.5 29t11.5 33.5t8.5 27q9 34 16.5 50t15.5 20q6 2 9 2q15 0 21 -13q2 -3 2 -6.5t-1.5 -10t-5 -18t-9.5 -30.5q-21 -64 -36.5 -148.5t-24.5 -174t-10.5 -177.5t5.5 -159q2 -18 7.5 -56.5
t17 -78.5t30 -70t45.5 -30q25 0 48.5 18.5t45 48t40 66t33.5 72t25.5 66t15.5 48.5q8 24 12.5 38t7.5 21.5t5.5 10.5t5.5 4q7 4 13 4q5 0 11 -6q4 -4 5.5 -8.5t0 -13.5t-5.5 -24t-11 -38q-11 -36 -33 -95.5t-54.5 -117t-74 -99t-91.5 -41.5q-16 0 -31 6zM120 -43
q28 48 67.5 131t84.5 188q17 39 33.5 79.5t29.5 73.5t21.5 55t8.5 24q0 8 -4.5 19.5t-8.5 13.5q-2 1 -6 1q-19 0 -52.5 -31t-65.5 -79q-23 -34 -45 -79.5t-41 -96.5t-34.5 -105t-24.5 -107q-2 -12 -4 -32t-2.5 -40t-0.5 -36.5t1 -23.5l2 -12l11 12q5 5 13.5 18t16.5 27z" />
    <glyph glyph-name="B" unicode="B" horiz-adv-x="803" 
d="M-6 -442q-36 10 -36 41q0 23 30 59.5t79 71.5q46 33 133.5 87.5t221.5 132.5l55 32l13 34q14 34 19.5 61.5t3.5 58.5q-1 34 -12.5 56t-32 35t-47 18t-57.5 5q-70 0 -162 -27l-26 -9l-18 -37q-8 -16 -12 -24.5t-6.5 -24.5t-4.5 -47t-7 -92q-4 -52 -7.5 -86.5t-8 -57
t-9.5 -35t-12 -19.5q-10 -10 -22 -10q-19 0 -30 26q-3 7 -4.5 21t-2.5 32t0 36.5t3 34.5q4 32 15 77t25 83q12 33 17 54t3 24h-2q-1 0 -9 -2q-8 -4 -17 -4q-19 0 -24 15q-3 11 3.5 19t26.5 20q27 16 27 22q1 2 2 17.5t3 33.5q2 24 5.5 54t7 60.5t8 59l7.5 47.5q6 32 14.5 68
t17 67t15.5 52t11 24q5 4 13 4q11 0 15 -7q10 -13 -1 -36q-5 -11 -11 -33t-12.5 -51.5t-12.5 -65.5t-12 -75q-4 -27 -8.5 -60.5t-7.5 -63t-4.5 -49.5t-0.5 -21q2 -2 7 9q24 44 53.5 86.5t59 78t56.5 61t46 34.5q13 7 26 7q27 0 27 -30q0 -13 -11 -34t-30 -47.5t-45.5 -56.5
t-57.5 -60q-21 -20 -26 -26.5t0 -4.5q24 5 53.5 8t58.5 3q31 0 62 -6t57 -20.5t45 -37.5t26 -57q2 -10 2.5 -26t-0.5 -33t-3.5 -33.5t-5.5 -28.5q-2 -11 -4 -18.5t-1 -8.5t15 7t34 20q20 11 41.5 23.5t32.5 19.5q11 6 32 18.5t41 24.5q20 11 36 20t20 11q3 1 8 1
q17 0 22 -13q3 -5 2.5 -8t-4.5 -8q-1 -1 -14 -9.5t-35 -22t-50 -30.5t-60 -35q-46 -27 -75.5 -44.5t-47.5 -29t-26 -17.5t-10 -9q-18 -30 -34.5 -54t-32.5 -45t-34 -41t-39 -41q-28 -28 -71.5 -63.5t-93 -66.5t-100 -52.5t-93.5 -21.5q-10 0 -14 1zM64 -390q36 12 72.5 32
t71.5 44t67 51t59 54q13 13 29 30.5t30.5 34.5t24 29.5t9.5 15.5q0 4 -10 -4q-5 -2 -27 -15t-48 -29q-82 -49 -141.5 -86t-99 -66t-62.5 -50.5t-32 -39.5l-5 -11l21 2q8 1 20.5 3.5t20.5 4.5zM326 427q14 17 20 26.5t4 9.5t-13 -12.5t-24.5 -28.5t-25 -30.5t-13.5 -17.5
l-6 -9q1 0 14 12q7 7 20 21.5t24 28.5z" />
    <glyph glyph-name="C" unicode="C" horiz-adv-x="457" 
d="M177 -348q-38 8 -71.5 45.5t-51.5 95.5q-11 33 -15 65.5t-4 82.5q0 103 24.5 218.5t70.5 232.5q6 15 10.5 27t4.5 14q0 4 -8 15q-8 12 -14.5 34t-8.5 43t3 45t13 32q7 8 17 8q12 0 16 -8q4 -6 4 -9t-5 -13q-3 -8 -4.5 -17t-1.5 -24q0 -19 4 -38.5t7 -19.5q1 0 8 12t15 29
q11 21 31 55.5t46.5 67.5t56 57t58.5 24q42 0 53 -53q5 -24 -2.5 -54t-24 -61.5t-41 -61.5t-54.5 -54q-54 -42 -93 -42q-5 0 -17 2q-3 1 -6.5 1h-5.5q-6 0 -7 -1q-2 -2 -6.5 -13.5t-10.5 -27.5q-86 -229 -86 -419q0 -78 14 -130t44 -85q28 -31 56 -31q24 0 45 15.5t39 37.5
t31.5 46.5t22.5 41.5q14 28 25 53.5t21 55t20.5 64.5t23.5 82q8 27 14.5 48t8.5 23q4 4 15 4q8 0 15 -6.5t7 -15.5q0 -3 -5 -24t-13 -48q-7 -27 -19.5 -69t-30 -88.5t-40 -94t-50 -85t-60.5 -61.5t-72 -24h-8t-8 1zM247 453q23 9 51 35.5t51 58.5t34.5 66.5t5.5 55.5
q-2 11 -7 11q-3 0 -6 -1q-19 -4 -50.5 -37t-61.5 -81q-7 -11 -17.5 -29.5t-20 -36.5t-16.5 -31.5t-7 -15.5q0 -4 9 -4q7 0 16.5 2t18.5 7z" />
    <glyph glyph-name="D" unicode="D" horiz-adv-x="578" 
d="M52 -356q-14 7 -23 22q-5 10 -7 16.5t-1 22.5q0 26 7 44q5 15 5.5 18.5t-3.5 5.5q-5 3 -9.5 14.5t-4.5 23.5t2.5 33.5t6.5 47t9.5 52t10.5 47.5q2 11 6 44.5t8 78.5q5 59 9.5 108t10 91t11 79t11.5 72q8 46 20.5 95t26 91.5t26 73t21.5 37.5q6 6 18 6q9 0 13 -4
q5 -5 4.5 -15.5t-5.5 -15.5q-7 -6 -17.5 -34.5t-22 -69.5t-23 -90t-19.5 -97q-4 -26 -10 -65.5t-10.5 -76.5t-7 -63.5t-1.5 -28.5q2 4 4 9t4.5 10.5t5.5 11.5q53 121 113 194t114 79q2 0 5 0.5t5 0.5q33 0 61 -25.5t42 -70.5q5 -15 8 -27t4.5 -25t2 -28.5t0.5 -37.5
q0 -42 -3.5 -74t-11.5 -73l-4 -21l9 4q32 13 52 21t32 12.5t18 6.5t9 2h3q14 -3 17 -15.5t-8 -20.5q-3 -3 -21.5 -11.5t-41.5 -18.5q-33 -14 -50 -21.5t-25.5 -12.5t-10.5 -10t-5 -13q-10 -31 -24 -65.5t-31.5 -69t-36.5 -66.5t-39 -58q-26 -35 -56 -64t-60 -49.5t-59 -32
t-53 -11.5q-15 0 -31 7zM129 -305q62 28 120.5 96t103.5 163q14 30 25.5 56t9.5 28q-1 1 -12 -5t-25 -15q-55 -34 -102.5 -71.5t-84 -75.5t-61.5 -75t-34 -70q-5 -14 -4 -27t6 -15q2 -1 8 -1q10 0 24 3.5t26 8.5zM150 -80q45 44 102 86t123 78l36 20l6 28q15 64 19.5 121.5
t-1 101.5t-20.5 73t-39 36q-8 2 -12 2q-27 0 -59.5 -30.5t-66 -84t-66 -126t-59.5 -156.5q-5 -17 -8 -28t-5.5 -24t-4 -30.5t-4.5 -47.5q-3 -34 -5.5 -59.5t-3.5 -28.5q-1 -2 3.5 2t12.5 13q8 8 23 24t29 30z" />
    <glyph glyph-name="E" unicode="E" horiz-adv-x="505" 
d="M193 -297q-41 12 -56 86q-3 13 -4.5 38.5t-1.5 55.5t1 60.5t3 51.5q2 18 5.5 42t7 49t7 47.5t6.5 38.5q3 14 4.5 24t1.5 11q-1 0 -8.5 -2t-18 -6t-21 -8.5l-17.5 -7.5q-7 -4 -15 -10t-13 -11q-10 -12 -17 -12q-5 0 -13 8t-8 13q0 18 29 37t84 38q23 8 27 10.5t6 11.5
q3 17 11.5 48t19 66t22 68t19.5 54l13 31l-37 -13q-29 -10 -58.5 -22.5t-55 -26t-45 -26t-28.5 -22.5q-8 -8 -16 -8q-14 0 -19 18q-2 8 4.5 16.5t25.5 22.5q35 26 95 55t119 48l41 14l9 16q5 9 13.5 25.5t19.5 33t23.5 28.5t24.5 12q10 0 18 -8q11 -11 6.5 -24t-18.5 -13
q-5 0 -11 -6.5t-21 -32.5q-9 -16 -8 -16q7 2 14 3q7 2 16 4.5t19 4.5q104 24 165 24q53 0 74 -18q17 -14 15.5 -32t-18.5 -20q-8 0 -12 2t-9 9l-10 12l-30 1q-32 0 -62.5 -3.5t-62.5 -10.5q-17 -3 -37 -7.5t-38 -9t-31.5 -8t-16.5 -5.5q-4 -2 -14 -25.5t-22 -57.5
t-24.5 -72.5t-21.5 -71.5q-5 -19 -8.5 -33.5t-4.5 -16.5q0 -4 3 -4t8.5 1t15.5 3q54 12 91 12q50 0 68 -21q7 -7 5.5 -17.5t-9.5 -14.5q-6 -2 -8 -2q-8 0 -19 5q-8 2 -18 4t-18 2q-16 0 -48.5 -4.5t-58.5 -10.5q-10 -3 -15.5 -4t-8.5 -7t-5.5 -19.5t-7.5 -41.5
q-11 -58 -18 -115.5t-9.5 -107.5t-0.5 -90t9 -64q8 -31 23 -31q10 0 23 9q37 23 89 101t126 221q17 32 30 56t16 27q7 7 16 7q8 0 15 -5.5t7 -14.5q0 -3 -12.5 -28.5t-30 -60t-37 -71t-33.5 -60.5q-131 -228 -211 -228q-4 0 -14 2z" />
    <glyph glyph-name="F" unicode="F" horiz-adv-x="513" 
d="M168 -389q-7 4 -10 13.5t-6 35.5q-2 17 -1.5 62t3 104.5t7 127.5t9.5 131l3 25l-21 -11q-8 -4 -23 -12t-28 -16q-20 -12 -30 -17t-17 -5q-2 0 -8 2q-11 7 -10 20.5t14 18.5q5 2 16 7.5t22 12.5q11 8 28 17.5t30 16.5l31 17l4 47q3 30 7 72t8.5 85t8.5 82t7 64
q3 26 5 44.5t2 19.5q-1 1 -14.5 -3t-33 -10t-41 -13t-37.5 -13q-15 -5 -34 -13.5t-38.5 -17.5t-36.5 -17t-26 -14q-6 -5 -11.5 -9.5t-7.5 -8.5q-7 -12 -25 -12q-6 0 -12 3q-9 5 -10 15.5t7 18.5q7 8 26 20t44 25.5t53 27t54 23.5q16 6 44 15.5t51 16.5l57 17l9 43
q13 63 25.5 102.5t22.5 47.5q5 4 15 4t16 -6q4 -4 5 -11t2 -23q2 -18 3.5 -24t7.5 -11q14 -14 2 -28q-6 -6 -14 -6q-6 0 -17 6l-11 6l-4 -21q-14 -60 -12 -64q1 0 16 2.5t36 7.5q69 17 137.5 28.5t139.5 11.5q46 -2 65 -10t30 -29q8 -15 6 -28.5t-13 -18.5l-8 -4
q-6 0 -12.5 9t-8.5 14q-4 12 -15.5 16t-43.5 6q-42 0 -83.5 -4.5t-83.5 -12.5q-21 -4 -50 -10.5t-55 -12.5t-44.5 -10.5t-20.5 -6.5t-6 -32.5t-9.5 -75t-11.5 -96.5t-10 -96t-6 -73.5t-1 -29.5q2 0 13 5t26 13q60 28 113 46.5t82 21.5q2 0 5 0.5t5 0.5q33 0 44 -24
q7 -14 1.5 -23.5t-16.5 -9.5q-10 0 -17 6t-15 6q-6 0 -10 -1q-23 -2 -78.5 -23.5t-121.5 -52.5l-36 -17l-2 -19q-4 -39 -8 -94.5t-7 -113.5t-5 -112t-2 -90v-45t-1 -25t-2 -12.5t-4 -6.5q-6 -8 -12 -8q-4 0 -10 3z" />
    <glyph glyph-name="G" unicode="G" horiz-adv-x="698" 
d="M239 -425q-20 20 -14 61q9 55 44.5 122t89.5 132q11 13 15 20.5t6 21.5q10 56 17.5 133t11.5 160q1 17 1.5 51.5t1 75.5t0.5 84.5t-0.5 79.5t-1 59t-1.5 24q-2 2 -12 4l-10 2l-26 -65q-35 -86 -69 -159t-64.5 -129.5t-56 -93t-44.5 -49.5q-17 -11 -31 -12h-8q-10 0 -19 8
q-50 41 -10 197q7 28 21 65.5t33.5 77.5t44 78.5t53 69.5t61 50.5t66.5 21.5l25 2l11 26q13 34 23 49t22 15q6 0 12 -3q8 -3 12 -10.5t7 -29.5t4.5 -64.5t2.5 -114.5q4 -151 -0.5 -275.5t-16.5 -231.5q-2 -17 -4 -32t-3 -20q-1 -6 0 -6q2 0 17 15q24 23 57.5 52t66 55
t59.5 46t39 26q14 6 24 6q25 0 25 -23q0 -10 -3.5 -13.5t-17.5 -7.5q-5 -2 -15 -7t-19 -11q-21 -15 -50 -39t-59.5 -50t-58.5 -51.5t-46 -43.5l-32 -32l-6 -26q-3 -15 -9.5 -42.5t-16 -61t-22.5 -68.5t-29 -63.5t-34.5 -46.5t-40.5 -18q-14 0 -23 9zM301 -340q7 11 14 28.5
t12 29.5q5 14 10 30t8.5 29t5.5 21.5t0 7.5t-8.5 -11t-14.5 -23.5t-16 -28t-13 -24.5q-11 -23 -19 -48t-11 -42l-2 -16l10 9q4 4 11 15t13 23zM123 168q13 17 30.5 46t37.5 65.5t40 77.5t38 81q8 18 21 48.5t25 60.5t21 52t9 23q0 2 -5 2q-19 0 -40 -13t-40 -32t-35 -38.5
t-25 -33.5q-20 -31 -39.5 -68.5t-35.5 -77.5t-25.5 -81t-10.5 -79q-2 -31 0 -44t7 -13q2 0 4 1q3 2 9.5 8.5t13.5 14.5zM409 651q0 4 -1 4t-2 -2q-4 -4 -1 -7l2 -2q2 0 2 7z" />
    <glyph glyph-name="H" unicode="H" horiz-adv-x="611" 
d="M478 -528l-9 8v107q0 40 0.5 72t2 71t4.5 90.5t7 130.5q5 74 9.5 143.5t9.5 130t9.5 110t8.5 83.5q2 14 3 24.5t0 11.5q-4 -5 -9 -12q-4 -5 -9.5 -12.5t-11.5 -15.5q-22 -30 -53 -70.5t-66.5 -85t-73 -89t-70.5 -82.5l-24 -28l3 -60q4 -57 8.5 -94t7.5 -38q4 -1 11 -5.5
t14.5 -10.5t14.5 -11.5t10 -9.5q16 -18 21.5 -40t-1.5 -44q-11 -37 -41 -37q-2 0 -4 0.5t-4 0.5q-34 6 -55 88l-9 34l-16 3q-5 1 -11 1.5t-14 0.5q-21 0 -47.5 -3t-49.5 -8q-46 -10 -59 -10q-11 0 -18 6q-9 6 -9 19q0 7 2 13.5t12 18.5t30.5 34.5t57.5 61.5q29 32 54 58
t31 32l13 15l1 109q3 157 16.5 281t38.5 230q11 42 18 62t14 25t17 5q9 0 13 -4q5 -4 4.5 -14t-4.5 -14q-7 -6 -15.5 -41.5t-17.5 -88.5t-17 -117.5t-13 -127.5q-2 -21 -3.5 -61.5t-3 -81.5t-2 -71.5t0.5 -32.5q3 -3 11 7q41 48 71 84t54.5 66t45.5 57t43 57q14 18 31.5 43
t33 49t28 43t15.5 26q2 5 6.5 20t8.5 32q12 51 28 81.5t32 34.5q2 1 7 1q13 0 20.5 -12t4.5 -28q-3 -15 -12.5 -40.5t-26.5 -57.5q-9 -17 -14 -29t-8.5 -27t-7 -38t-8.5 -62q-6 -46 -12 -115t-12 -150t-12 -169.5t-10 -173.5t-7 -162t-4 -135q0 -21 -0.5 -33t-1 -18t-2 -8.5
t-4.5 -4.5q-6 -5 -12 -5t-13 7zM253 -223q-2 8 -8 18.5t-8 8.5q-1 0 0.5 -6t4 -13t5 -13.5t3.5 -8.5l2 -2q5 0 1 16zM78 -122q17 2 33.5 2.5t33.5 0.5l30 -1l-2 12q-1 5 -2.5 22t-3.5 37q-1 20 -2.5 35.5t-2.5 17.5q-1 5 -48 -43q-50 -52 -67.5 -72.5t-12.5 -18.5
q3 1 15.5 3.5t28.5 4.5z" />
    <glyph glyph-name="I" unicode="I" horiz-adv-x="313" 
d="M-4 -428q-13 3 -13 22q0 15 27 38t62 46t68 41.5t45 24.5l23 13l-5 8q-12 18 -17 123t0 282q2 119 5.5 206t8 151.5t11.5 112.5t16 90q2 8 2 11q1 2 1 4q-1 1 -15 -5t-34.5 -15t-44 -20.5t-44.5 -21.5q-51 -26 -71.5 -38t-24.5 -20q-4 -10 -17 -10q-16 0 -22 14
q-5 13 7 25.5t53 35.5q15 9 39 21.5t51 26t53.5 26t46.5 21.5q39 17 41 23q3 12 21 12q2 0 3 -0.5t3 -0.5q15 0 34 7q35 14 79 28.5t82 14.5q30 0 48 -9t14 -25q-5 -14 -20 -14q-4 0 -7.5 0.5t-8.5 1.5t-10.5 1.5t-11.5 0.5q-16 0 -40 -5.5t-50 -14t-49.5 -17t-37.5 -14.5
l-20 -8l-8 -42q-9 -44 -15.5 -100t-11 -129.5t-7 -168.5t-3.5 -218q-1 -90 -1 -148t1.5 -92t4 -48.5t6.5 -17.5q3 -2 5 -6t3 -8l2 -9l28 11q29 11 56.5 19t40.5 8q48 0 45 -28q-1 -17 -38 -17q-17 0 -46 -9t-63.5 -24t-71.5 -34t-70.5 -38.5t-61 -38.5t-41.5 -33t-20 -19
t-11 -5q-3 0 -4 1z" />
    <glyph glyph-name="J" unicode="J" horiz-adv-x="569" 
d="M57 -382q-18 10 -25 32t0 50q15 66 75 140.5t153 143.5l40 30l9 45q24 130 21.5 263.5t-32.5 289.5q-6 32 -10 45t-7 13q-1 0 -15 -4.5t-34 -11.5q-48 -17 -80.5 -33.5t-43.5 -27.5l-9 -9t-12 -4q-21 0 -21 21q0 10 11.5 21t37.5 26q32 19 86.5 40.5t114.5 39.5t118 30
t98 12q22 0 39.5 -2.5t26.5 -7.5q24 -11 20 -30q-3 -12 -16 -12q-5 0 -11.5 1.5t-15.5 3.5q-11 2 -17 3.5t-14 1.5q-41 0 -88.5 -10t-86.5 -21q-18 -5 -31 -8.5t-14 -3.5q0 -3 3 -12q3 -10 8 -34t10 -52t10 -56.5t8 -47.5q30 -204 -4 -400q-1 -7 -2 -13t-2 -11q0 -5 -1 -10
q1 0 12.5 7.5t28.5 18.5q72 45 116.5 69t58.5 24q11 0 19 -7t8 -15q0 -16 -21 -21q-12 -2 -46.5 -21.5t-73.5 -42.5t-71.5 -44.5t-39.5 -28.5q-2 -2 -7 -14.5t-10 -27.5q-16 -56 -39.5 -107.5t-50.5 -94.5t-56 -74t-58 -47q-20 -11 -42 -11q-14 0 -25 6zM104 -336
q14 7 31.5 23.5t35.5 39.5t35.5 51.5t31.5 58.5q8 16 15.5 33.5t13 32.5t8.5 25t2 11t-10.5 -6t-23 -18.5t-29 -26t-27.5 -27.5q-47 -47 -75.5 -92t-35.5 -83q-6 -29 8 -29q4 0 20 7z" />
    <glyph glyph-name="K" unicode="K" horiz-adv-x="621" 
d="M92 -456q-12 14 -17 47.5t-5 107.5q0 58 3 130t10 177q2 39 4 68t2 31t-5.5 10t-13.5 18q-15 20 -19.5 31.5t0.5 20.5q2 3 9.5 12.5t17.5 19.5l23 24l3 29q1 19 4.5 55t8 75t8.5 74t6 53q1 9 5 33t9.5 55t13.5 64.5t18 61.5t21.5 46t24.5 18q8 0 14 -6t7.5 -15.5
t3.5 -44.5q2 -31 -0.5 -39.5t-12.5 -11.5q-7 0 -15 5q-9 7 -10 6t-5 -19t-8.5 -42.5t-9.5 -50t-7 -40.5q-3 -19 -8 -61t-9.5 -84t-8 -74t-2.5 -33t11 11.5l24 30t28.5 37t24.5 33.5q34 49 67 106t59 111t42 98t16 66q0 28 21 28t21 -28q0 -13 -5.5 -35.5t-16 -51t-24 -61
t-30.5 -66.5q-45 -91 -96 -167.5t-114 -148.5l-36 -41l-7 -96l16 -27q19 -32 37 -71.5t40 -98.5q12 -31 20 -52t14.5 -35.5t11.5 -24t11 -18.5q22 -34 48 -34t51 33q7 9 13.5 18t15.5 24t22 38t34 61q46 82 72.5 129t42 70.5t23 29.5t14.5 6q8 0 15.5 -7.5t7.5 -16.5
t-10 -19q-5 -6 -15 -21.5t-26.5 -44t-41 -71.5t-58.5 -104q-16 -29 -32 -56t-23 -38q-53 -77 -105 -77q-17 0 -31 7q-16 7 -29.5 19t-26.5 32.5t-26.5 50.5t-29.5 74t-31 80t-23 52l-6 13l-2 -18q-2 -19 -5.5 -76.5t-6.5 -129.5q-1 -35 -1.5 -71.5t0 -70t2 -60t3.5 -40.5
q2 -17 2 -21.5t-4 -9.5q-6 -6 -15 -6q-8 0 -13 5z" />
    <glyph glyph-name="L" unicode="L" horiz-adv-x="627" 
d="M63 -282q-11 7 -18 25q-15 41 6 286q2 27 5 64.5t6.5 78t6.5 80.5t5 74q7 102 13 175.5t10.5 123.5t9 79.5t8.5 44.5q8 25 25 25q4 0 6 -1q10 -4 13 -16.5t4 -53.5l1 -52l-9 -5q-10 -5 -11 -5t-7 -79.5t-16 -222.5q-3 -39 -6 -83t-6.5 -87.5t-6.5 -82t-5 -65.5t-4.5 -54
t-4 -50t-3 -40.5t-2.5 -24.5q-2 -35 0 -64t7 -29q2 0 18 10.5t37 26.5q23 17 42.5 30.5t39.5 25.5t42.5 24.5t50.5 26.5q150 74 212 74q16 0 24 -4q15 -6 19.5 -18.5t-4.5 -20.5q-4 -4 -14 -4h-6t-9 1q-36 0 -86.5 -17.5t-102.5 -43.5t-100 -55.5t-81 -54.5
q-36 -26 -55.5 -38t-32.5 -12q-10 0 -21 8z" />
    <glyph glyph-name="M" unicode="M" horiz-adv-x="678" 
d="M602 -402q-16 16 -28 84.5t-21 197.5q-2 29 -3 82t-1 108.5t1 103.5t3 68q5 45 11.5 92.5t13.5 79.5q3 16 5 27.5t1 11.5q0 1 -9 -13.5t-22 -35.5q-31 -51 -57.5 -100t-51.5 -98t-48 -100t-46 -107q-11 -26 -19.5 -45t-11.5 -22q-8 -5 -14 -5q-9 0 -17 8l-9 7v61
q0 34 2.5 83t5.5 105t7.5 114.5t9.5 110.5q3 32 5 55.5t1 24.5t-13.5 -27t-28.5 -66q-51 -126 -86.5 -265t-50.5 -278q-5 -39 -7.5 -50t-10.5 -15q-6 -3 -12 -3q-21 0 -27 37q-2 12 -4.5 36.5t-5.5 54t-5 60.5t-4 56q-2 35 -3 86.5t-1 105.5t1.5 103t3.5 77q5 53 12 105
t16 95.5t18 75t18 44.5q8 11 18 12h2q18 0 22 -17.5t-10 -29.5q-5 -5 -10.5 -22t-13.5 -59q-20 -97 -28 -224t-3 -265q2 -43 3.5 -77t2.5 -39l2 -6q1 0 4 19q10 55 26 118.5t36.5 127t43.5 124t46 108.5q22 46 38.5 67t30.5 21q13 0 20 -10.5t9 -21.5q1 -6 -1 -36t-5 -67
l-9.5 -114t-9.5 -126.5t-6.5 -103.5t-1.5 -44t6.5 11.5t13.5 30.5q7 15 26 55t45.5 91.5t57.5 108t60 103t54 77t39 30.5q11 0 18 -7.5t7 -18.5q0 -5 -4 -22t-9 -38q-31 -118 -41.5 -247t-3.5 -286q3 -68 8 -125.5t10 -100.5t11 -67t11 -24t10 -6.5t5 -13.5q0 -11 -8 -18
t-19 -7q-12 0 -21 9z" />
    <glyph glyph-name="N" unicode="N" horiz-adv-x="496" 
d="M388 -425q-14 5 -19 46.5t-3 137.5q2 66 6.5 157.5t11 192t14.5 202t17 186.5q4 34 6 59.5t1 27.5q0 2 -7.5 -7t-19 -26t-25 -39t-27.5 -45q-13 -21 -30 -53.5t-34 -67t-32.5 -67.5t-25.5 -56q-16 -39 -29 -72.5t-24.5 -67.5t-22.5 -72t-23 -86q-8 -32 -13.5 -51.5
t-9.5 -31t-7 -16.5t-7 -7q-6 -3 -12 -3q-13 0 -21 10q-8 11 -10 66t1.5 134.5t12.5 173t22 182.5q8 54 18 106.5t21 96t22 74t19 39.5q5 5 16 5q10 0 15 -4q5 -3 10 -21.5t5 -30.5q0 -18 -20 -18q-8 0 -10.5 -3t-7.5 -21q-13 -46 -25 -115t-22.5 -148t-18 -160.5
t-10.5 -153.5l-2 -47l18 58q24 81 56 160t75 164q6 11 19 37t31 58.5t38.5 68t41.5 64.5t39.5 47.5t32.5 18.5q25 0 31 -30q1 -5 -1 -37.5t-7 -80.5q-13 -135 -23.5 -273.5t-17.5 -258.5t-9 -211t1 -132q2 -29 2 -37.5t-3 -13.5q-7 -10 -16 -10q-2 0 -8 2z" />
    <glyph glyph-name="O" unicode="O" horiz-adv-x="426" 
d="M153 -337q-60 28 -75 158q-3 25 -3.5 61t1.5 76.5t6 82t10 77.5l2 10h-16q-10 0 -15 2t-12 8q-11 8 -14.5 21.5t-3.5 37.5q0 29 9.5 68t25.5 81t37.5 83.5t46.5 75.5q7 10 11 16t7 14.5t6.5 21t8.5 34.5q26 104 46 147t41 43q24 0 21 -25q0 -2 -3 -6.5t-7 -9.5
q-3 -5 -8 -15t-9 -19q-3 -8 -9 -27.5t-12.5 -40.5t-11 -38t-4.5 -20q0 -2 10 -2h9h4q119 0 111 -387q-2 -94 -10.5 -167.5t-25.5 -142.5q-27 -109 -65 -167t-80 -58q-15 0 -29 7zM193 -295q14 7 29 29t28.5 55t25 75.5t20.5 90.5q15 84 20 175.5t1 172.5t-16.5 141t-32.5 81
q-8 8 -18 8q-14 0 -31 -18q-6 -6 -14.5 -39.5t-18.5 -81t-19.5 -103.5t-18 -106.5t-14 -90t-7.5 -53.5q-3 -23 -4.5 -52t-2 -58t0 -55t1.5 -42q5 -48 16.5 -80t26.5 -45q8 -8 15 -8q6 0 13 4zM100 166q0 2 2.5 18t6.5 39t9 50.5t9.5 52.5t8 43.5t5.5 24.5q1 5 -3 -2.5
t-10.5 -20.5t-13.5 -29t-12 -29q-17 -44 -25 -83.5t-3 -53.5q2 -7 9.5 -9.5t14.5 -2.5q2 0 2 2z" />
    <glyph glyph-name="P" unicode="P" horiz-adv-x="462" 
d="M191 -393q-10 6 -17 21t-10.5 45.5t-4.5 79t0 121.5q1 55 2 100t2 54q2 14 1.5 18t-3.5 4q-6 0 -20 12.5t-19 23.5q-13 26 -1.5 49.5t37.5 24.5q13 0 13 3q0 8 3 43t7 80.5t8.5 93t7.5 78.5q3 24 4.5 41.5t0.5 18.5q-1 2 -12.5 -12t-27.5 -35t-32.5 -45t-27.5 -42
q-17 -27 -30 -53t-18 -43l-5 -17l8 -3q3 -1 6 -4.5t5 -6.5q5 -12 -3 -19.5t-20 -7.5q-7 0 -14.5 3t-12.5 10q-12 15 -6 45t32 80q27 52 65.5 106t84.5 106q11 11 18 20.5t7 11.5q0 5 4 23.5t9.5 41t11 44.5t9.5 33q16 50 35 50q5 0 11 -3q23 -11 5 -34q-5 -6 -9.5 -19
t-11.5 -40q-5 -20 -8.5 -34.5t-2.5 -14.5q0 -1 9.5 5.5t22.5 16.5q92 69 160 71q24 0 39 -6t29 -21q20 -22 26.5 -58t0.5 -82.5t-23.5 -101t-47.5 -113.5q-19 -39 -46.5 -84.5t-60.5 -89t-70.5 -79.5t-76.5 -56l-24 -12l-3 -41q0 -8 -0.5 -26.5t-1 -42.5t-0.5 -52v-56
q0 -54 0.5 -88.5t2 -55.5t4.5 -32.5t7 -18.5q6 -10 6 -14t-7 -12q-7 -7 -15 -7q-5 0 -12 4zM167 116q0 5 -2 5l-1 -1q0 -2 -1 -4q-2 -5 0 -11l2 -4q2 0 2 4q2 6 0 11zM235 113q33 22 70.5 64t72.5 94t64.5 109.5t47.5 110.5q14 43 20 74.5t4 66.5q0 14 -1 27.5t-5.5 24
t-14 17t-26.5 6.5q-32 0 -81.5 -27t-100.5 -73l-26 -23l-4 -25q-9 -57 -18.5 -151.5t-17.5 -209.5q-3 -38 -4 -58t-1.5 -28.5t0 -9.5t1.5 -1q3 0 20 12z" />
    <glyph glyph-name="Q" unicode="Q" horiz-adv-x="358" 
d="M311 -399q-22 11 -45 97t-45 237q-2 15 -3.5 26t-2.5 11q0 1 -4.5 -5t-9.5 -15q-23 -35 -51.5 -56.5t-51.5 -21.5q-66 0 -61 128q4 83 34.5 195.5t83.5 237.5q11 26 13.5 36t2.5 27q0 12 2 42.5t8.5 61.5t19 55t32.5 24q14 0 28 -16q5 -7 8 -7q1 1 7 10l14 21
q9 13 24.5 35t35 43t39.5 36.5t38 15.5q14 0 24 -8q19 -16 9 -32q-6 -10 -16 -10q-7 0 -12 4q-6 3 -8 3t-13 -6q-9 -7 -22 -22t-28 -34.5t-30 -41.5t-29 -45l-12 -21l7 -42q8 -45 9 -107t-4 -128t-15.5 -130t-25.5 -114q-4 -14 -6 -22t-1.5 -20.5t4 -36t9.5 -68.5
q15 -106 30 -176.5t31 -110.5q10 -24 10.5 -34t-6.5 -15q-8 -5 -11 -5q-2 0 -10 4zM122 -69q17 13 34 36.5t32 53.5l17 33l-9 80q-2 16 -4 36t-4 40.5t-3.5 40t-3.5 34.5q-2 30 -4.5 51t-2.5 22q-1 1 -6.5 -13t-13 -35.5t-15.5 -46t-14 -44.5q-11 -38 -21.5 -82.5
t-15.5 -78.5q-3 -15 -4 -34.5t-1 -38.5t1.5 -34t4.5 -20q6 -12 12 -12t21 12zM249 255q7 58 10 112.5t1 101.5q-1 34 -2 49t-5 15q-3 0 -19 -32l-18 -39l2 -49q2 -37 6 -87.5t9 -106.5q3 -30 5 -30t11 66zM237 616q-1 6 -2 6t-4 -10q-2 -5 -3 -11t-2 -9q0 -3 1 -3q2 0 6 7
q7 11 4 20z" />
    <glyph glyph-name="R" unicode="R" horiz-adv-x="759" 
d="M216 -324q-3 3 -5 8t-3 9q-2 10 -4 42.5t-3 80t-1.5 106.5t-0.5 122.5t0.5 127t1.5 120.5l2 103l-15 -19q-51 -65 -81.5 -135t-28.5 -118q1 -21 3.5 -26t15.5 -7q10 -4 14 -11q6 -8 1 -16q-7 -12 -25 -12q-9 0 -18.5 4t-16.5 12q-10 11 -13.5 24t-3.5 36q0 42 14.5 86.5
t37 86.5t50 80t54.5 69l15 18l3 49q3 38 7 76.5t8.5 70t9 53.5t7.5 26q6 6 16 6t15 -5t8 -37q1 -13 2.5 -24.5t2.5 -14.5q5 -20 -12 -26q-9 -2 -9 -6q0 -1 -1.5 -18.5t-3.5 -41.5t-3.5 -41.5t-1.5 -18.5q0 -2 7.5 4t18.5 15q23 18 53.5 39t64 38.5t68 29t64.5 11.5
q41 0 63 -22q38 -36 7 -111.5t-131 -187.5q-14 -16 -32.5 -35t-38 -37t-38.5 -33.5t-33 -25.5l-28 -20l14 -15q11 -11 19.5 -23.5t16 -29.5t15 -40.5t16.5 -57.5q9 -35 16.5 -60.5t15 -44.5t14.5 -33t16 -26q18 -26 41 -26q26 0 58 32q9 10 17 20t17 23t20.5 31.5t26.5 44.5
q14 25 37 61.5t41 63.5q29 44 41.5 59t22.5 15q2 0 2.5 -0.5t2.5 -0.5q14 -5 15.5 -17.5t-10.5 -26.5q-7 -9 -20 -28.5t-29 -44.5t-33 -52t-31 -51q-16 -28 -29 -48.5t-23.5 -35.5t-20.5 -26.5t-22 -22.5q-21 -20 -38.5 -30t-47.5 -10q-33 0 -64 32q-23 25 -40 64t-37 114
q-7 27 -12 45t-9.5 31t-8 21.5t-7.5 16.5q-9 19 -24 32t-27 13q-3 0 -4 -2.5t-2 -18t-1 -48.5v-94q0 -34 0.5 -69t1 -66.5t1 -56.5t1.5 -38q1 -26 1.5 -41t-0.5 -24t-3 -12.5t-6 -6.5q-4 -2 -9 -2q-9 0 -15 6zM299 235q19 13 45.5 36.5t55.5 53t58 62.5t53 66.5t39.5 64
t17.5 54.5q2 11 0.5 15.5t-6.5 9.5q-6 6 -11 7.5t-22 1.5q-43 0 -104.5 -31t-125.5 -85q-13 -11 -24.5 -20.5t-14.5 -14.5l-9 -9l-3 -111q-2 -46 -3 -82t-1 -41v-12l16 9q6 3 17.5 10.5t21.5 15.5z" />
    <glyph glyph-name="S" unicode="S" horiz-adv-x="767" 
d="M209 -320q-18 5 -22.5 23.5t7.5 41.5q11 23 35 53t57 63t73 68.5t85 68.5q19 14 30 23t18 19t12 23t13 36q38 112 1 148q-13 13 -34 13h-10.5t-11.5 -2q-50 -9 -120 -49t-166 -115q-46 -35 -67.5 -49.5t-35.5 -14.5q-10 0 -19 6q-13 8 -15.5 25t3.5 48q8 40 28.5 93
t48 110.5t61 115t67.5 105.5q68 94 125.5 143t99.5 49q8 0 15 -2t14 -5q19 -10 27.5 -34t13.5 -78q3 -29 3 -36.5t-4 -12.5q-6 -6 -14 -6q-15 0 -20 18q-2 5 -3 15.5t-2 19.5q-2 26 -7.5 47.5t-10.5 26.5q-4 4 -12 4q-16 0 -39.5 -16.5t-47 -39t-43 -45t-28.5 -33.5
q-57 -75 -108.5 -166t-85.5 -177q-9 -22 -16.5 -44t-12.5 -40t-6.5 -29t1.5 -10q1 0 19.5 14t43.5 34q30 23 71.5 53.5t86.5 57.5t91 45.5t85 18.5q43 0 68 -25q25 -24 29 -72t-15 -108q-3 -8 -4.5 -14t-1.5 -7q1 0 12 6t26 14q53 30 96.5 49.5t63.5 21.5q4 1 9 1q8 0 15 -6
q14 -11 7.5 -27t-24.5 -15h-5q-13 0 -41 -12.5t-58.5 -28.5t-57.5 -32t-39 -24q-14 -9 -22 -14.5t-13 -10t-8 -10t-8 -13.5q-9 -17 -28 -46t-43.5 -62t-53.5 -67t-58.5 -61.5t-57.5 -45t-51 -17.5q-8 0 -11 1zM259 -257q9 6 24.5 20t33 31.5t34.5 36t29 33.5q25 31 38 49.5
t7 13.5q-21 -17 -44 -37.5t-45 -42t-41 -42.5t-32 -37q-28 -37 -24 -37t20 12z" />
    <glyph glyph-name="T" unicode="T" horiz-adv-x="468" 
d="M330 -385q-9 7 -14 25q-2 6 -3 13.5t-2 23.5t-1 42.5v70.5q0 69 1.5 119.5t4.5 92.5q5 69 11 140t12.5 136t13 119.5t12.5 91.5q3 20 8 46t10 51t9.5 44.5t6.5 24.5q1 4 2 7t1 4q0 2 -21 -4.5t-53 -17.5t-70 -25.5t-72 -28.5q-20 -8 -41 -18t-38.5 -18.5t-28.5 -15.5
t-11 -9q0 -7 -8 -12t-19 -5q-8 0 -12 2t-9 7q-9 11 -1 22.5t38 29.5q52 31 134 65.5t183 68.5q19 6 35 12.5t19 8.5q8 6 19 6q5 0 21.5 4t36.5 9q56 16 123.5 30.5t126.5 14.5q50 0 77 -10q19 -8 33 -21.5t14 -24.5q0 -19 -16 -19q-10 0 -22 9q-16 12 -32.5 16.5t-46.5 4.5
q-90 0 -249 -44q-30 -8 -36.5 -11t-8.5 -11q-3 -9 -13 -13q-8 -2 -10 -6.5t-8 -30.5q-20 -85 -39.5 -242t-33.5 -364q-3 -47 -5.5 -101.5t-3 -105.5t0 -93t2.5 -63q2 -26 2 -34.5t-3 -10.5q-6 -7 -13 -7q-6 0 -13 5z" />
    <glyph glyph-name="U" unicode="U" horiz-adv-x="542" 
d="M406 -451q-3 2 -7.5 7.5t-8.5 12.5q-3 6 -4.5 10.5t-2.5 14.5t-0.5 29t0.5 53q0 50 4 122t11 160.5t17.5 190.5t23.5 212q2 11 2.5 21t1.5 17q0 9 1 16q-4 -9 -8 -19q-3 -9 -8 -21t-10 -26q-33 -85 -69.5 -172t-71 -161t-63.5 -129.5t-46 -78.5q-23 -32 -48 -32
q-18 0 -33 20q-16 22 -25.5 72t-11.5 119.5t3 153.5t18 174q17 118 42.5 216t57.5 167q17 34 29 48t24 14q22 0 28 -21q8 -29 -3 -38q-5 -5 -15 -5q-7 0 -9 3q-1 3 -4 3t-16 -31q-21 -51 -39 -117.5t-32 -140t-23.5 -150t-13 -148t-1.5 -134.5t12 -109q9 -48 16 -48
q5 0 24 33.5t45 86.5t56 117.5t56 127.5q31 75 71 177.5t82 218.5q8 23 16 41t10 21q7 7 16 7q8 0 15 -6t7 -17q0 -5 -3 -27.5t-8 -49.5q-7 -41 -15 -101.5t-16 -131t-16 -148t-15 -153.5t-12 -145.5t-8 -125.5q-1 -29 -2 -57t-0.5 -52t2 -41.5t3.5 -23.5q3 -11 -2.5 -19.5
t-14.5 -8.5q-6 0 -9 2z" />
    <glyph glyph-name="V" unicode="V" horiz-adv-x="514" 
d="M118 -267q-32 14 -47.5 75.5t-20.5 185.5q-2 67 2.5 150.5t13.5 167.5t22.5 159.5t28.5 126.5q11 39 20 53t23 14h3q16 -1 21 -13t9 -56q2 -21 3.5 -40t2.5 -24q2 -9 0.5 -12t-7.5 -7q-5 -4 -12 -4q-18 0 -24 38l-3 17l-5 -24q-9 -37 -17 -88t-15 -108t-11.5 -117.5
t-6.5 -116.5q-3 -64 -1 -122.5t7 -104t13 -74t18 -34.5q1 -1 5 -1q14 0 39 23.5t51 62.5q14 20 36.5 63t51 100t60 123.5t62 134t58.5 131.5t49 116q11 26 18 44.5t12 33.5t9 27.5t8 26.5q8 24 19 24q5 0 9 -3q8 -4 10 -8.5t2 -19.5q0 -26 -38.5 -125.5t-113.5 -262.5
q-54 -120 -94 -203.5t-71 -140.5t-54.5 -92t-44.5 -56q-45 -45 -78 -45q-10 0 -22 5z" />
    <glyph glyph-name="W" unicode="W" horiz-adv-x="789" 
d="M436 -385q-38 17 -62 85.5t-35 193.5q-4 44 -6 107t-2.5 132t1 138t4.5 125q1 17 1.5 23t-1.5 6l-1 -1l-2 -2q-1 -3 -14 -31t-34 -75t-49 -111t-61 -138q-23 -54 -38 -86t-25 -49.5t-17 -24t-15 -7.5q-11 0 -19 3t-13 15q-3 7 -4 25.5t-0.5 43t3 52t5.5 52.5
q12 78 30 159.5t37 150.5t37.5 117.5t31.5 60.5q8 7 19 7t18 -9q5 -6 6 -13.5t-1 -39.5q-6 -83 0 -105q5 -23 -17 -23q-25 0 -27 47q0 17 -2 17q-1 0 -13 -38q-15 -49 -28 -104.5t-24 -111t-19 -108t-12 -94.5l-1 -21l6 12q2 3 8.5 18t17.5 39t24.5 54.5t28.5 64.5
q54 124 85.5 194t48 105t24 45t13.5 14q8 5 15 5q15 0 22 -15q3 -4 4 -14t1 -30t-1.5 -53.5t-4.5 -84.5q-1 -29 -2 -78t-1 -102.5t1 -102t3 -77.5q1 -10 2.5 -37.5t5.5 -63.5t10 -75t15 -71.5t21.5 -54t29.5 -21.5q2 0 2.5 0.5t2.5 0.5q3 1 9.5 7t14.5 14q21 22 46 77.5
t50.5 130.5t48.5 164t39 179q8 40 13 73t9.5 69.5t8.5 81.5t9 108q4 47 6 74t4 44t3.5 27.5t3.5 23.5q2 14 4 19.5t7 9.5q9 6 13 6q5 0 12 -4q8 -3 10 -11t-1 -25q-1 -4 -2.5 -18.5t-3.5 -35.5t-4.5 -47.5t-4.5 -54.5q-5 -59 -9 -101.5t-8 -77t-8.5 -65t-10.5 -65.5
q-15 -88 -36 -176.5t-45 -166.5t-49.5 -141t-49.5 -101q-41 -64 -87 -64q-13 0 -25 6z" />
    <glyph glyph-name="X" unicode="X" horiz-adv-x="464" 
d="M9 -500q-6 5 -7 24.5t4 42.5q6 29 26 85t49 129.5t65.5 159t76.5 174.5l36 80l-10 47q-2 11 -10.5 45.5t-20 79.5t-25.5 95t-28.5 91.5t-29 68.5t-25.5 27q-10 0 -18.5 -13.5t-10.5 -21.5q-5 -22 -20 -22q-7 0 -13 7q-7 8 -5 21.5t9.5 27.5t19.5 25.5t25 15.5q10 2 13 2
q40 0 71 -65q10 -21 23.5 -58t27.5 -82t27 -93t22 -90q3 -14 5.5 -24.5t4.5 -12.5q1 -1 3.5 3.5t5.5 11.5q5 12 25.5 53.5t45.5 91.5t50 98.5t39 75.5q24 45 43.5 79.5t37.5 63.5t36.5 54.5t39.5 50.5q23 28 48.5 53t37.5 30q12 6 23 6q12 0 20 -5.5t8 -15.5q0 -11 -6.5 -15
t-16.5 -4q-6 0 -12 -4t-18 -15q-83 -77 -196 -288q-13 -24 -36 -69t-47.5 -94.5t-48 -97t-37.5 -77.5l-30 -62l15 -75q15 -76 27.5 -152t22.5 -143t16.5 -121.5t8.5 -87.5q1 -28 0.5 -35.5t-4.5 -12.5q-6 -6 -15 -6t-14 5q-2 4 -6 26t-10 74q-6 51 -12 95.5t-13 88.5
t-14.5 90t-17.5 100q-5 30 -9.5 52t-5.5 24t-4 -2t-10.5 -21t-22 -49.5t-38.5 -88.5q-35 -81 -64 -153t-49.5 -128.5t-32 -95t-11.5 -53.5q0 -12 -6 -19t-14 -7q-6 0 -14 5z" />
    <glyph glyph-name="Y" unicode="Y" horiz-adv-x="687" 
d="M342 -450q-12 5 -20 20q-5 10 -6.5 17.5t-0.5 29.5q0 32 12.5 68t30.5 71.5t39 68t39 57.5l26 37l10 108q2 22 5 51.5t6 61.5t6 63.5t6 57.5q2 26 5 58t6.5 64.5t6.5 62.5t5 53q3 23 5 43.5t4 35.5q1 18 3 33q0 1 -5.5 -12.5t-13.5 -32.5q-12 -28 -30 -71t-38.5 -89.5
t-40.5 -92.5t-35 -81q-40 -91 -71 -154.5t-55.5 -104t-44.5 -61.5t-39 -28q-12 -5 -16 -5t-12 3q-76 22 -69 288q3 129 22.5 252t52.5 223q17 53 31 76.5t27 23.5q6 0 9 -2q15 -7 16 -21.5t-13 -22.5q-6 -4 -10 -11t-12 -29q-21 -59 -37.5 -138.5t-27 -163.5t-14 -165
t2.5 -144q5 -47 13.5 -82t18.5 -41q5 -2 21.5 16t33.5 44q18 27 47 85t66.5 139.5t82 184.5t92.5 221q14 34 27 64.5t17 40.5q19 37 36 37q16 0 20 -13.5t4 -24.5q0 -4 -1 -19.5t-3.5 -38t-5.5 -50.5t-6 -57q-3 -30 -7 -64t-7 -67.5t-6 -63.5t-5 -51q-6 -66 -11.5 -123
t-9.5 -99.5t-6.5 -67t-2.5 -26.5t6.5 4t15.5 17q21 24 44 49.5t43.5 47t34.5 36t17 15.5q6 3 10 3q2 0 8 -2q7 -3 10.5 -11t1.5 -15q-1 -2 -22 -26l-49 -56q-56 -61 -92.5 -105t-38.5 -52q-1 -3 -3 -20t-5 -39q-2 -15 -6.5 -42t-11.5 -59.5t-17.5 -66.5t-24.5 -62
t-32.5 -45.5t-41.5 -17.5q-10 0 -20 5zM379 -397q22 25 37.5 72t29.5 131l2 13l-8 -11q-6 -8 -14 -22.5t-17 -30t-16.5 -30.5t-11.5 -24q-14 -32 -20 -63t-1 -44q1 -4 4 -4t15 13z" />
    <glyph glyph-name="Z" unicode="Z" horiz-adv-x="692" 
d="M264 -398q-8 2 -14.5 10t-8.5 19q-2 13 5 38t21 55.5t33.5 65t41.5 67.5q24 35 55.5 73t61.5 68q13 13 20.5 21t11.5 14t6 11.5t5 14.5q6 18 10 37t6 36t2 29.5t-3 16.5q-3 3 -9 3q-19 0 -50.5 -18.5t-68.5 -47t-75.5 -64t-72.5 -69t-60 -62t-37 -42.5q-14 -20 -21 -25.5
t-17 -5.5q-16 0 -19 18q-2 6 2 13.5t15 24.5q7 11 19.5 31.5t39.5 68t73.5 129.5t121.5 215q56 99 94 167t60.5 110.5t31.5 62t7 21.5q-4 4 -27.5 -14t-56 -48t-68 -66.5t-64.5 -69.5q-49 -57 -92 -118.5t-76 -118.5t-52.5 -106t-21.5 -81l-2 -24l13 2q2 0 4 0.5t4 0.5
q23 0 21 -21q-1 -21 -38 -21h-7q-12 0 -21 8q-25 25 -12 88q7 35 25 78t44 90.5t60 98t73 99.5q12 14 34 40t50 57t60 63t63 58t58.5 42.5t46.5 16.5q22 0 30 -20q4 -8 4 -13.5t-4 -19.5q-3 -10 -12.5 -32t-24.5 -52t-34.5 -67t-42.5 -77q-37 -66 -78 -139t-76 -135
t-59 -104.5t-27 -46.5q-3 -5 -1 -5q1 0 25 21q18 16 48 42t64 51t68 43t61 18q29 0 44 -25q8 -13 10.5 -38t-2.5 -51q-2 -9 -2.5 -15.5t-0.5 -7.5q1 0 12 6.5t25 17.5q38 27 59 39.5t31 12.5q14 0 21 -11t-1 -21q-2 -2 -8 -6l-12 -8q-8 -4 -22 -13.5t-30.5 -21t-33.5 -24
t-32 -24.5l-34 -27l-17 -43q-19 -47 -43 -96t-49.5 -93t-50 -80t-45.5 -58q-20 -20 -32.5 -29t-24.5 -9q-5 0 -8 1zM328 -292q13 18 30.5 45.5t34.5 57.5t32 58.5t22 49.5q-1 0 -6 -6q-42 -50 -78 -106.5t-62 -116.5l-10 -24l10 9q4 4 11.5 13.5t15.5 19.5z" />
    <glyph glyph-name="bracketleft" unicode="[" horiz-adv-x="260" 
d="M103 -317q-19 9 -34 31t-24.5 53t-12.5 68.5t1 76.5q5 37 15 87.5t24.5 109t32.5 122t38 126.5q15 48 36.5 108t44 118.5t42.5 108.5t33 77q49 104 87 123q12 5 22 5q27 0 67 -27q26 -18 18 -33q-6 -12 -15 -12q-8 0 -31 14q-25 17 -35 17q-7 0 -15 -8
q-21 -18 -54.5 -90.5t-85.5 -212.5q-24 -64 -44 -121.5t-37 -112.5t-32 -109t-30 -112q-10 -43 -17 -75.5t-11.5 -58.5t-6.5 -48.5t-2 -45.5q0 -35 3.5 -57.5t14.5 -46.5q5 -12 15.5 -24t16.5 -12q2 0 9 4t15 9q18 12 27 12q6 0 11 -5q14 -14 -8 -38q-24 -27 -53 -27
q-13 0 -25 6z" />
    <glyph glyph-name="backslash" unicode="\" horiz-adv-x="428" 
d="M285 -60q-9 7 -27 40t-40.5 82t-48.5 110.5t-52 125.5t-50 127t-43 115t-31 89t-14 50q-2 14 5 21q6 8 14 8q7 0 14 -6.5t7 -13.5q0 -9 16 -55t41 -111.5t56.5 -143t62.5 -151t58 -134t43 -92.5q9 -17 15.5 -31.5t6.5 -17.5q0 -6 -6.5 -12.5t-12.5 -6.5q-5 0 -14 7z" />
    <glyph glyph-name="bracketright" unicode="]" horiz-adv-x="234" 
d="M-65 -313q-7 4 -11 11q-5 12 4 21t43 28t51 32t26 27q9 15 18.5 47t20.5 88t24 139.5t29 202.5q8 57 15 105t14.5 93t16 90.5t18.5 97.5q9 47 16 82t7 38q0 7 -4 7q-3 0 -36 -9q-24 -6 -39 -6q-27 0 -28 22q0 9 6 13t22 5q7 1 21 3.5t27 7.5q29 9 42 9q12 0 19 -7
q7 -6 10 -14.5t2 -28t-6.5 -53t-16.5 -89.5q-11 -57 -19.5 -101.5t-16.5 -96.5t-17.5 -119t-23.5 -169q-23 -168 -42 -257.5t-39 -120.5q-15 -23 -34 -39t-64 -41q-20 -11 -30.5 -15.5t-16.5 -4.5q-2 0 -8 2z" />
    <glyph glyph-name="asciicircum" unicode="^" horiz-adv-x="297" 
d="M212 423q-4 3 -6.5 6.5t-5 12t-4 23.5t-4.5 39q-2 13 -3 23.5t-2 18.5q-1 10 -2 18q-1 1 -9.5 -11.5t-20.5 -29.5q-50 -73 -64 -73q-7 0 -14 5q-8 5 -7 15t11 21q5 5 19 25.5t31 44.5q16 24 29.5 43t16.5 21t7.5 3.5t9.5 1.5q17 0 24.5 -17t13.5 -70q5 -46 8 -69.5
t5 -32.5q2 -11 -3.5 -17t-14.5 -6q-7 0 -15 5z" />
    <glyph glyph-name="underscore" unicode="_" horiz-adv-x="476" 
d="M36 -40q-8 7 -8 12t7 13q5 6 9 7.5t17 1.5q8 0 38.5 3t65.5 8q38 5 75 9.5t67.5 7.5t52 5t30.5 2q27 0 27 -19q0 -7 -3 -11.5t-14.5 -8t-34 -6t-60.5 -6.5q-26 -3 -69.5 -7.5t-78.5 -8.5q-42 -5 -64.5 -7t-34.5 -2q-11 0 -14.5 1.5t-7.5 5.5z" />
    <glyph glyph-name="grave" unicode="`" horiz-adv-x="224" 
d="M146 705q-7 5 -26 22.5t-38.5 37.5t-34.5 38.5t-15 25.5t6 13.5t14 6.5q3 0 17.5 -13t36.5 -35q20 -20 39 -38t27 -25q16 -14 19.5 -23t-4.5 -17q-6 -6 -13 -6q-11 0 -28 13z" />
    <glyph glyph-name="a" unicode="a" horiz-adv-x="309" 
d="M154 -65q-11 6 -20 27q-11 23 -15.5 52.5t-3.5 77.5q1 12 1 21.5v17.5v16q-4 -7 -9 -16q-4 -8 -9.5 -18t-11.5 -21q-16 -31 -27.5 -50.5t-20.5 -30t-16 -14.5t-16 -4q-32 0 -35 56q-1 18 1.5 39t7.5 42.5t12.5 41.5t16.5 35q22 37 52 37q10 0 15 -2t13 -10q13 -11 14 -11
q1 1 5.5 10.5t11.5 21.5q6 13 12.5 24t8.5 14q7 7 16 7q17 0 23 -17q1 -2 -0.5 -14t-3.5 -26q-8 -42 -12 -84t-4 -78t4 -63t11 -39q1 -2 4 -2q10 0 32 33.5t53 93.5q23 45 31.5 56.5t19.5 11.5q4 0 11 -9t7 -14q0 -3 -6.5 -17.5t-15.5 -34t-19.5 -40t-19.5 -35.5
q-29 -49 -50 -70t-43 -21q-14 0 -25 6zM45 111q14 27 21.5 40.5t9.5 20.5t0.5 10t-4.5 8q-7 12 -12 12q-9 0 -21.5 -28.5t-18.5 -63.5q-4 -20 -5 -35t1 -15q1 0 9.5 15t19.5 36z" />
    <glyph glyph-name="b" unicode="b" horiz-adv-x="328" 
d="M23 -236q-42 27 21 131q15 24 35.5 51t43.5 51q12 12 18 20t9 16.5t3.5 20.5t-0.5 32q0 2 -0.5 10t-2 16t-4 14.5t-7.5 6.5q-2 0 -7 -3q-18 -7 -36.5 -33.5t-35.5 -58t-29.5 -62.5t-18.5 -47q-8 -23 -15 -32.5t-17 -9.5q-9 0 -16 8.5t-7 19.5q0 5 2.5 30t6 58.5t8 71
t8.5 67.5l8 63l-8 8q-8 8 -8 18q0 7 5 13.5t10 6.5t7.5 8.5t5.5 31.5q4 24 12 65t20 88.5t28 96.5t35 89t41 65t46 25q12 0 22.5 -10t14.5 -26q7 -24 -0.5 -68.5t-26.5 -96.5q-9 -25 -25 -58.5t-34.5 -68t-37.5 -66.5t-35 -55q-8 -11 -14 -20.5t-7 -12.5t-4.5 -28.5
t-7.5 -56t-7 -56.5t-3 -31q0 -7 12 15q8 12 19.5 29t25.5 32.5t30.5 26t33.5 10.5q23 0 39 -21t19 -59q1 -11 1.5 -18t1.5 -7t13 10t29 24q24 21 39 33t24 18.5t14 8.5t9 2q19 0 23 -17q1 -4 0.5 -6.5t-7 -9.5t-22.5 -20.5t-46 -38.5q-31 -27 -48 -41.5t-25.5 -24
t-11.5 -18.5t-7 -24q-5 -20 -18 -55.5t-31.5 -70t-42.5 -60t-51 -25.5q-11 0 -19 5zM93 -140q5 9 11.5 21t11.5 23.5t8 19.5t2 8t-7 -8t-14 -19.5t-16 -23.5t-13 -20q-5 -9 -11 -20t-8 -19l-6 -17l13 15q6 6 14.5 17.5t14.5 22.5zM103 428q25 49 40.5 87t24.5 72
q3 12 5.5 26t4 26.5t1.5 21t-2 8.5t-5 -4.5t-8 -9.5q-62 -89 -105 -305q-1 -3 0 -3q4 0 44 81z" />
    <glyph glyph-name="c" unicode="c" horiz-adv-x="268" 
d="M3 -101q-15 4 -24.5 14t-15.5 23.5t-8.5 28t-2.5 27.5q-2 35 5 73t20 73.5t31 65.5t39 48q17 15 31 15q5 0 15 -4q22 -12 22 -50q0 -35 -19 -35t-19 29v18l-13 -14q-17 -19 -31.5 -52.5t-23.5 -70.5t-11.5 -71.5t4.5 -55.5q6 -18 17 -18q9 0 25.5 11.5t37 29.5t41.5 40
t40.5 42t34 36.5t20.5 23.5q16 18 28.5 30.5t15.5 13.5q9 0 16 -3t10 -13q1 -5 -3 -17q-5 -10 -30.5 -39t-56.5 -62t-61 -63t-45 -41q-46 -35 -77 -35q-4 0 -12 2z" />
    <glyph glyph-name="d" unicode="d" horiz-adv-x="261" 
d="M124 -307q-4 5 -7 12.5t-4.5 21t-2 34t0.5 51.5q2 56 6 122t12 160q2 14 2.5 26t1.5 21q0 10 1 19q0 1 -6.5 -14.5t-15.5 -36.5q-25 -59 -46.5 -102t-32.5 -56q-18 -20 -33 -20q-4 0 -14 4q-23 11 -29 55.5t8 108.5q4 20 14.5 53t26.5 64.5t37.5 54t48.5 22.5
q10 0 14.5 -2t11.5 -9l11 -11l11 33q4 10 6.5 19t5 20.5t5 26.5t5.5 37q9 69 18 115.5t17 60.5q11 19 27 19q13 0 19 -13q10 -19 0.5 -81t-35.5 -146q-4 -11 -6.5 -21t-4.5 -22.5t-3.5 -30t-4.5 -43.5q-19 -199 -27 -319t-6 -180q1 -19 1 -29.5t-0.5 -15.5t-1.5 -7t-4 -4
q-7 -5 -12 -5q-7 0 -15 8zM38 54q7 14 19 42t22 51l24 58l-5 22q-2 12 -3 16q0 4 -1 7q0 1 -5 1t-18 -14.5t-21 -30.5q-11 -20 -21 -48.5t-17 -58t-10 -56t0 -43.5l2 -13l9 15q3 7 10.5 22t14.5 30z" />
    <glyph glyph-name="e" unicode="e" horiz-adv-x="366" 
d="M44 -66q-23 7 -42 24.5t-29 41.5q-5 12 -6 22.5t-1 39.5q0 28 1.5 40.5t7.5 31.5q15 51 40.5 97t55.5 77q34 34 54 34q11 0 24 -13q5 -5 6.5 -10t0.5 -20q-1 -17 -10.5 -40.5t-24.5 -45t-33 -36.5t-36 -15q-2 0 -3.5 0.5t-3.5 0.5l-13 2l-8 -27q-25 -76 -9.5 -119.5
t66.5 -43.5q26 0 52 8.5t55 28.5t63.5 52t77.5 79q17 18 23 23t13 5q9 0 16 -6.5t7 -14.5q0 -6 -16.5 -26t-40.5 -45t-50 -50t-45 -39q-34 -25 -72.5 -42.5t-81.5 -17.5q-11 0 -20.5 1t-17.5 3zM78 225q5 6 10.5 15t10 18t7.5 16t2 8t-10 -9.5t-18.5 -24.5t-17.5 -26.5
t-8 -15.5q0 -2 1 -2q3 0 9.5 6.5t13.5 14.5z" />
    <glyph glyph-name="f" unicode="f" horiz-adv-x="269" 
d="M-46 -404q-14 13 -18 39t-4 89q0 29 1 59t2 43q2 12 2.5 21.5t-0.5 10.5t-13 -5q-80 -46 -118 -64t-55 -18q-9 0 -17 5q-16 12 -10 32q4 12 20.5 26t40.5 26.5t53.5 23t58.5 16.5q21 3 34 11l14 8l5 44q19 155 47 274t63 188q28 58 52 62q2 0 3 0.5t3 0.5q5 0 14 -9
q10 -10 10 -24t-10 -49t-14.5 -44t-15.5 -9q-12 0 -16 7q-1 3 -3 3t-4.5 -7t-8.5 -24q-22 -68 -39.5 -153.5t-34.5 -213.5q-2 -8 1 -8t14.5 8t38.5 28q23 17 42.5 31.5t37.5 29.5t36 31t40 36q20 19 37 32.5t20 15.5q2 0 2.5 0.5t2.5 0.5q11 0 18.5 -9.5t4.5 -19.5
q-1 -3 -17 -18t-37.5 -35t-46 -41t-44.5 -37q-17 -14 -44 -34t-47 -35q-20 -14 -37 -26.5t-21 -14.5l-7 -6l14 -8q39 -23 55 -72.5t2 -106.5q-3 -12 -10 -32.5t-18 -41t-25 -35t-30 -14.5q-14 0 -24 12zM4 -323q30 72 11 127q-2 6 -6.5 13.5t-9.5 13.5t-9.5 9.5t-5.5 1.5
q-2 -2 -3 -28.5t-2 -59.5t-1 -62.5t1 -37.5l3 -16l6 8q2 3 6.5 12z" />
    <glyph glyph-name="g" unicode="g" horiz-adv-x="379" 
d="M-72 -441q-33 12 -33 52q0 23 12 56t33.5 71.5t52 81t66.5 84.5q17 20 21.5 27t5.5 18q4 26 6.5 66.5t4.5 83.5l1 61l-17 -49q-24 -67 -40.5 -93t-35.5 -26q-30 0 -38 38.5t9 103.5q4 15 11.5 36.5t18.5 42t26 34.5t34 14l13 -1l8 22q4 13 11 24.5t22 11.5
q14 -3 17.5 -12t5.5 -41q1 -15 1 -51t-1 -77t-2 -78.5t-3 -54.5l-2 -21l19 18q15 15 43 38t57.5 47t56 44t38.5 28q14 10 28 10q8 0 13 -5q11 -11 6.5 -20.5t-25.5 -23.5q-15 -10 -42.5 -31t-58 -46t-60.5 -51t-51 -45l-32 -31l-4 -25q-5 -35 -17 -82.5t-30.5 -95t-45 -87.5
t-61.5 -58q-8 -4 -17.5 -6.5t-17.5 -2.5q-5 0 -7 1zM-26 -371q21 21 35.5 45.5t29.5 62.5q4 11 9.5 28.5t10 34.5t7.5 29t2 13t-6.5 -5.5t-14.5 -18t-19.5 -26.5t-20.5 -30q-14 -21 -26 -43t-21 -42.5t-14.5 -37.5t-5.5 -28q0 -7 2 -7q5 0 17 10.5t15 14.5zM28 99
q16 42 25.5 74t7.5 37l-2 5q-4 0 -10.5 -12t-12.5 -27t-10.5 -28.5t-5.5 -17.5q-3 -13 -5.5 -26.5t-4 -24.5t-1.5 -17t2 -4q1 1 6 13t11 28z" />
    <glyph glyph-name="h" unicode="h" horiz-adv-x="390" 
d="M185 -164q-14 8 -22 28t-12 55q-4 42 3.5 101.5t27.5 149.5q5 20 8 35t3 16q0 3 -9.5 -8.5t-22.5 -29t-27 -37t-23 -34.5q-8 -12 -22 -37.5t-25 -48.5q-12 -23 -22 -41.5t-13 -20.5q-6 -5 -16 -5q-12 0 -19 7q-8 9 -11 31t-1 64q4 81 11.5 160.5t18.5 138.5q3 19 10.5 53
t19 74t27 81.5t35 75t43 55t50.5 21.5q25 0 42 -20q7 -8 13 -29.5t5 -39.5q0 -28 -9.5 -64.5t-26.5 -77t-40.5 -83t-51.5 -82.5q-20 -29 -41.5 -51t-32.5 -24q-12 -3 -13 -12q-1 -4 -3 -26.5t-4.5 -49t-4 -51t-1.5 -33.5v-17l19 34q20 36 43 69.5t44.5 60t39.5 43t30 18.5
q3 1 8 1q29 0 29 -40q0 -7 -4.5 -31t-10.5 -51t-12.5 -57t-8.5 -46q-4 -25 -6.5 -55.5t-2.5 -57.5t2.5 -46.5t6.5 -22.5q5 -3 22 18.5t38.5 56.5t45 78.5t41.5 84.5q8 17 15 31t10 17q5 6 13 6q11 0 19 -11l6 -8l-10 -27q-9 -21 -23.5 -51t-31.5 -61.5t-33.5 -61
t-28.5 -47.5q-49 -74 -83 -74q-10 0 -21 6zM78 326q22 28 42.5 63t38 71t30.5 71.5t19 64.5q6 30 2.5 55t-14.5 25q-2 0 -8 -3.5t-11 -8.5q-18 -16 -35.5 -46t-33 -70.5t-29 -89.5t-22.5 -104q-7 -38 -8 -49.5t3 -9.5q2 1 9 10t17 21z" />
    <glyph glyph-name="i" unicode="i" horiz-adv-x="208" 
d="M40 -64q-18 5 -32.5 26.5t-22.5 53.5q-3 12 -4.5 31t-1 41t2.5 45t5 42q1 10 7.5 38t16 58t22 53.5t25.5 23.5q12 0 17.5 -14t-5.5 -28q-7 -8 -17 -39.5t-17 -65.5q-7 -35 -9.5 -71t-0.5 -67t8 -53t16 -28q5 -3 8 -3q12 0 30.5 20.5t36.5 46.5t33 51.5t20 35.5
q12 23 18.5 30.5t15.5 7.5q6 0 13 -8.5t7 -14.5q0 -9 -13 -34t-32 -55t-39 -57.5t-34 -40.5q-27 -27 -59 -27q-5 0 -15 2zM90 435q-7 7 -8.5 11t0.5 16q2 20 7.5 24.5t22.5 4.5q27 -3 33 -17q7 -13 -1 -30q-5 -9 -13.5 -14t-17.5 -5q-13 0 -23 10z" />
    <glyph glyph-name="j" unicode="j" horiz-adv-x="273" 
d="M-319 -479q-48 22 -37.5 86t75.5 152q38 51 91 103.5t112 97.5q16 12 29 22t16 12q3 3 5 10t4 21q2 22 4.5 52t4 63.5t3 68.5t2.5 66q1 32 2 50t1.5 27.5t2 12.5t3.5 4q8 5 12 5q6 0 13 -7q3 -3 4 -6.5t1.5 -17.5t0.5 -43t-1 -82q0 -29 -0.5 -56.5t-1.5 -49.5t-1.5 -37
t-0.5 -20q-2 -9 -2.5 -15.5t0.5 -6.5q7 4 15 10q7 5 16 10.5t20 12.5q72 48 120 75t65 31q3 1 8 1q13 0 21 -9.5t5 -22.5q-2 -8 -8.5 -10.5t-13.5 -2.5q-3 2 -23 -8.5t-50 -28.5t-67 -41.5t-73 -47.5l-42 -29l-9 -51q-19 -112 -52 -189.5t-86 -132.5q-38 -40 -81 -62.5
t-77 -22.5q-17 0 -30 6zM-254 -433q19 7 43 24t45 37q75 76 109 210q9 32 15 60.5t4 32.5q-1 3 -19.5 -11.5t-44 -37t-52.5 -49t-46 -47.5q-34 -38 -59 -74.5t-39 -66.5t-15.5 -52t10.5 -30q4 -3 14 -3q16 0 35 7zM-14 475q-9 4 -14.5 14.5t-3.5 18.5q1 4 6.5 9.5t11.5 11
t12.5 9t9.5 3.5q15 0 20.5 -18t-5.5 -34t-26 -16q-7 0 -11 2z" />
    <glyph glyph-name="k" unicode="k" horiz-adv-x="366" 
d="M160 -106q-20 10 -36 36.5t-32 80.5q-16 56 -32 75q-3 5 -5 5l-4 -4q-2 -2 -5.5 -11t-7.5 -20q-3 -9 -4.5 -14.5t-2.5 -11.5t-1 -14t1 -20q1 -14 2.5 -29t3.5 -21q9 -26 -9 -32q-2 -1 -6 -1q-17 0 -25 18q-8 16 -11 43.5t-2 90.5q0 41 1 69.5t2.5 54.5t4 54t7.5 67
q8 68 26 134.5t41.5 122.5t50.5 96t52 53q14 6 29 6q10 0 17 -3q19 -10 25.5 -36.5t1 -66t-22 -89.5t-43.5 -107q-25 -52 -60 -108.5t-69 -101.5q-10 -13 -11.5 -19t-3.5 -25l-1 -26l16 23q18 27 38.5 50.5t40 42t36.5 29.5t29 12h7q15 0 25 -10q7 -7 8.5 -11t0.5 -18
q-2 -20 -16 -41.5t-33.5 -41t-40.5 -35.5t-37 -25q-4 -2 -3 -6t9 -20q5 -9 13 -31t15 -43q23 -74 41 -81q5 -2 16.5 7.5t25.5 26.5q12 14 40 55t67 103q16 24 24.5 34t16.5 10q2 0 8 -2q8 -4 11 -9t0 -15t-13.5 -27.5t-28.5 -46.5q-28 -45 -49.5 -75.5t-37.5 -51
t-28.5 -31.5t-23.5 -16q-14 -7 -27 -7q-11 0 -21 5zM148 205q12 12 21 22t9 12t-6 -2.5t-15 -12t-19 -17.5t-18 -19q-14 -17 -12 -17q6 0 40 34zM89 351q93 161 108 272q3 22 1.5 37.5t-6.5 15.5q-2 0 -7.5 -5t-12.5 -12q-19 -21 -38 -56t-35.5 -78t-29.5 -91.5t-20 -97.5
q-5 -30 -6 -42.5t1 -12.5t10 11q5 7 15 24.5t20 34.5z" />
    <glyph glyph-name="l" unicode="l" horiz-adv-x="126" 
d="M-1 -173q-8 10 -13 27q-2 6 -3 13t-2 20t-1 34v55q0 21 0.5 43t1 42t1 35.5t1.5 24.5l4 43l-8 8q-15 15 2 30q3 3 5 6t3.5 10t3 20t4.5 37q8 76 17 136t19.5 107.5t23 85t27.5 68.5q27 54 54 54q5 0 7 -1q9 -2 18.5 -13.5t13.5 -23.5q8 -29 7.5 -71t-9.5 -80
q-14 -63 -46.5 -142.5t-73.5 -153.5l-19 -34l-6 -72q-2 -32 -3.5 -78t-1.5 -86v-49t0.5 -31t1.5 -19.5t3 -14.5q5 -15 5 -19.5t-4 -9.5q-5 -8 -15 -8q-11 0 -18 7zM84 401q30 75 42.5 125t12.5 97q0 43 -5 43q-2 0 -7 -9q-22 -44 -41 -116.5t-30 -157.5q-3 -20 -5 -37
t-2 -19t1 -2q2 0 10 17.5t24 58.5z" />
    <glyph glyph-name="m" unicode="m" horiz-adv-x="419" 
d="M238 -55q-19 10 -29.5 34.5t-15.5 72.5q-1 11 -1.5 23t0 28t2 37.5t4.5 52.5l2 20l-6 -9q-2 -5 -13 -23t-24 -41q-23 -39 -37 -56t-25 -17q-10 0 -16 6.5t-9 15.5t-4.5 18.5t-1.5 15.5v2h-1q-3 0 -14 -32q-7 -21 -12 -34t-9 -20.5t-7 -11t-7 -5.5q-6 -2 -9 -2
q-14 0 -20 14q-2 4 -3 17t-1 30t1.5 36.5t3.5 36.5q4 32 10 62.5t12.5 56t13.5 43.5t13 25q9 11 22 11q7 0 12 -5t5 -15t-6 -16q-13 -15 -27 -88q-10 -46 -7 -46q2 0 11 19q25 51 46 51q6 0 12 -3q10 -5 12 -15t0 -42l-1 -36l10 17q20 34 33 55.5t21.5 34.5t14 20t9.5 11
q14 15 26 15q10 0 16.5 -10.5t6.5 -29.5q0 -8 -2 -30t-4 -47q-3 -24 -4.5 -49.5t-2 -48t0 -40.5t2.5 -27q5 -18 10 -29t10 -11q3 0 11 7t18.5 18.5t22.5 26t22 28.5q3 5 14 20.5t23 32.5t23 31.5t14 15.5q5 3 10 3q8 0 15 -7q9 -8 6.5 -18.5t-19.5 -32.5q-8 -12 -22.5 -31.5
t-25.5 -36.5q-7 -11 -20 -28.5t-29 -34.5t-33 -29t-32 -12q-12 0 -21 5z" />
    <glyph glyph-name="n" unicode="n" horiz-adv-x="336" 
d="M-2 -14q-9 4 -14 12.5t-7 25.5q-3 24 1.5 65t13 83t20 78t22.5 51q8 10 18 10q31 0 10 -41q-3 -7 -8 -22.5t-9 -30.5q-4 -13 -8 -33t-7.5 -39t-5.5 -33.5t-1 -16.5t10 19q8 17 26.5 55t41.5 77t48 70.5t45 34.5q3 1 8 1q19 0 28 -17q5 -12 4 -38t-9 -79q-4 -25 -7 -52.5
t-4.5 -52t-1.5 -43t2 -26.5q4 -11 8 -11q5 0 24.5 24.5t45.5 62.5q22 32 30.5 41t16.5 9q5 0 13 -8.5t8 -13.5t-11 -23t-26.5 -40.5t-32 -43.5t-27.5 -32q-24 -24 -45 -24q-22 0 -37 23q-14 21 -14.5 69t11.5 133q5 32 8.5 55t3.5 25q0 5 -9.5 -6.5t-25.5 -34.5
q-20 -31 -47 -83.5t-49 -104.5q-18 -42 -30 -59.5t-23 -17.5q-2 0 -8 2z" />
    <glyph glyph-name="o" unicode="o" horiz-adv-x="289" 
d="M-8 -118q-12 6 -22 20.5t-15 31.5q-2 10 -3 27t-0.5 36.5t2.5 39t5 34.5q2 11 9.5 35t17.5 53t23 59.5t27 56t29.5 41.5t29.5 16q8 0 15 -6t7 -13q0 -5 -5 -12.5t-10 -7.5t-15.5 -15.5t-24.5 -42.5l-16 -32h9q21 0 43 -43q15 -29 31.5 -34t46.5 -5q26 1 43 7.5t43 26.5
q22 16 31 16q13 0 19 -10t-1 -20q-4 -7 -15.5 -16.5t-25.5 -18.5t-28.5 -16.5t-25.5 -10.5q-8 -2 -22 -3t-28 -1h-19t-13 2l-9 3l-1 -34q0 -30 -7 -55t-22 -51q-12 -20 -33 -42t-47 -22q-12 0 -23 6zM25 -74q11 7 25.5 29.5t21.5 41.5q11 37 5 85q-2 13 -5 19t-15 17
q-7 8 -14 15.5t-9 12.5l-5 11l-7 -23q-13 -40 -19 -74.5t-7 -66.5q0 -28 1 -37.5t6 -19.5q7 -16 10 -16q2 0 12 6z" />
    <glyph glyph-name="p" unicode="p" horiz-adv-x="316" 
d="M-134 -450q-12 9 -16 23t-4 52q0 41 8.5 85.5t21.5 88t29.5 85.5t32.5 79q7 15 11 25t7 21t5.5 25.5t7.5 37.5q22 128 44 206.5t39 96.5q10 10 18 10q7 0 14 -7q8 -8 7.5 -13t-8.5 -16t-15 -30t-17 -61q-4 -16 -9 -37.5t-8.5 -41.5t-6 -34t-2.5 -15q1 -1 7.5 7.5
t14.5 20.5q8 11 22.5 29t31.5 34.5t35 28.5t34 12q19 0 32 -14t15 -40q2 -18 -4.5 -46t-17.5 -51q-3 -9 -6 -15l-2 -6q2 0 26.5 16.5t53.5 38.5q16 12 29 20t15 8q8 0 15 -7t7 -15q0 -10 -21 -28t-48.5 -36.5t-53 -33.5t-34.5 -20q-46 -26 -69 -46q-20 -18 -39.5 -31.5
t-30.5 -15.5q-2 -1 -7 -1q-14 0 -21.5 10.5t-4.5 24.5q4 19 64 52q23 13 30.5 19.5t18.5 21.5q49 66 55 126q1 15 0.5 18.5t-5.5 3.5q-9 0 -25.5 -15t-37 -40.5t-42 -58.5t-40.5 -69l-21 -37l-17 -108q-15 -95 -26 -156.5t-20 -99t-16.5 -55.5t-16.5 -25q-10 -8 -20 -8
q-9 0 -19 7zM-98 -322q10 48 15 77.5t4 31.5q-1 0 -3.5 -7t-5.5 -19t-6 -26.5t-6 -27.5q-3 -12 -5 -26t-3.5 -26.5t-2 -20.5t1.5 -7q2 7 4 15t3.5 16.5t3.5 19.5z" />
    <glyph glyph-name="q" unicode="q" horiz-adv-x="327" 
d="M55 -429q-11 6 -16.5 12.5t-12.5 19.5q-13 25 -16 68t4 98q2 17 3.5 30.5t2.5 16.5q3 7 -10 10q-5 2 -19 3.5t-29 3.5q-14 2 -27 4.5t-16 4.5q-11 7 -11.5 19t10.5 21q2 2 19 11.5t40 20.5q30 16 45.5 24t22.5 13.5t8.5 11l4.5 16.5q3 9 9 31t13 43q6 22 10.5 37t3.5 16
l-8 -10q-8 -12 -19 -25q-35 -48 -59 -69t-41 -21q-10 0 -16 8.5t-8.5 20t-2.5 24t2 19.5q5 21 24 65t44.5 88t54.5 77t56 33q22 0 31 -21l4 -9l9 17q5 8 11.5 21t11.5 24q5 12 11 21t9 11q6 3 12 3q15 0 21 -17q3 -5 -15 -45q-17 -37 -33.5 -77.5t-32.5 -87.5
q-7 -21 -16 -49t-17 -53.5t-13 -43.5t-4 -18q0 -1 8.5 4.5t21 14.5t27.5 20.5t28 23.5q14 11 37.5 32t42.5 40q29 28 38 35.5t16 7.5q11 0 18 -9q5 -6 5 -9t-2 -10q-2 -5 -15.5 -19.5t-32.5 -32.5t-41 -38t-41 -35q-17 -14 -42 -32.5t-43 -30.5l-44 -30l-9 -33
q-3 -14 -5.5 -24.5t-3.5 -12.5q0 -2 4.5 -5t9.5 -7q23 -15 41.5 -41t26.5 -53q8 -31 3.5 -63t-16.5 -58.5t-29.5 -43.5t-37.5 -17q-8 0 -20 5zM92 -373q18 24 22 62.5t-10 66.5q-3 8 -10 17.5t-14 15.5l-16 16l-4 -25q-5 -32 -6 -69t3 -57q3 -18 9 -31t11 -11q6 3 15 15z
M34 -119q4 13 2 13l-18 -9q-13 -7 -13 -9.5t12 -4.5q4 -1 8 -1q6 0 9 11zM31 99q13 17 31 42t30 43l29 44l-3 19q-1 8 -2 14.5t-2 7.5t-6.5 -4t-13 -14t-16 -20t-15.5 -21q-7 -12 -17.5 -30.5t-20 -38t-18 -37.5t-11.5 -29l-5.5 -16.5t-3.5 -9.5q-2 -3 0 -3q5 0 44 53z" />
    <glyph glyph-name="r" unicode="r" horiz-adv-x="344" 
d="M129 -212q-13 2 -24.5 16t-16.5 31q-2 6 -3.5 12.5t-2 17.5t0 28t0.5 45q0 48 -1 75.5t-7 46.5t-18.5 35t-35.5 39q-62 63 -69 94q-12 44 19 86q11 15 25 22.5t28 7.5q23 0 36 -21q10 -16 5 -51t-22 -70l-8 -17l30 -31q17 -18 26.5 -30.5t16.5 -26.5t11.5 -26t6.5 -27.5
t2 -37t-1 -54.5q-2 -63 1.5 -91t14.5 -28q10 0 29 24q6 8 15 21.5t16 24.5q8 14 21.5 39.5t28 54.5t29 59t24.5 54q9 22 17 39t10 19q5 5 16 5q21 0 21 -20q0 -6 -11.5 -34t-28 -64.5t-35.5 -74.5t-33 -64q-38 -69 -66.5 -99t-54.5 -30q-8 0 -12 1zM16 242q5 17 7.5 33.5
t0.5 22.5q-1 2 -3 2q-7 0 -17.5 -17t-10.5 -29q0 -9 4.5 -20.5t8.5 -11.5q2 0 4.5 6t5.5 14z" />
    <glyph glyph-name="s" unicode="s" horiz-adv-x="432" 
d="M-57 -304q-22 12 -20.5 39t23 64.5t61.5 82t95 90.5q13 11 15 15t2 16q0 54 -44 87q-6 5 -25 15t-39 20q-23 11 -37 19.5t-21.5 16t-9.5 16t0 18.5q3 18 24.5 37.5t49 36t56.5 27.5t47 11q29 0 37 -17q4 -5 4 -8t-5 -9q-3 -5 -5 -6.5t-7 -1.5q-6 0 -11 1q-27 0 -41.5 -5
t-38.5 -19q-20 -13 -39.5 -27.5t-22.5 -20.5q-2 -3 -2 -5t4.5 -5t15.5 -8.5t30 -14.5q42 -20 76.5 -48t45.5 -76l4 -16l42 29q34 23 69 44t65 37.5t52.5 27t31.5 11.5q2 1 6 1q7 0 14 -6q13 -11 8 -26.5t-22 -15.5q-6 0 -25.5 -9t-47 -24.5t-60.5 -35.5t-66 -42
q-25 -17 -39 -26.5t-21.5 -16.5t-10.5 -12.5t-5 -12.5q-6 -23 -18 -50.5t-28.5 -55t-36 -53.5t-39.5 -46q-44 -47 -75 -47q-6 0 -16 4zM10 -222q20 21 40 50.5t33 55.5l11 22l-34 -34q-36 -38 -59.5 -70t-30.5 -55l-3 -7l10 7q4 2 13.5 11t19.5 20z" />
    <glyph glyph-name="t" unicode="t" horiz-adv-x="115" 
d="M13 -243q-16 16 -24 69t-8 141q0 52 2.5 113t6.5 124.5t10.5 126.5t13.5 118q3 22 5 37.5t2 16.5q-1 1 -20.5 -5t-46.5 -15q-50 -17 -82.5 -30t-38.5 -21q-5 -5 -13 -5q-9 0 -14 5q-6 7 -5.5 16.5t7.5 15.5q13 13 65 34.5t119 42.5l39 12l12 37q11 33 20.5 47t20.5 14
q32 0 17 -54q-2 -8 -3.5 -13.5t-1.5 -7.5t18.5 2t47.5 11q79 21 137.5 32t90.5 11q4 0 7 -0.5t6 -0.5q23 -3 34.5 -14t5.5 -25q-4 -10 -18 -10q-9 0 -14 2t-21 2q-38 0 -116.5 -16t-178.5 -45q-11 -3 -17 -5t-9 -10t-5.5 -26t-6.5 -54q-14 -116 -21 -214t-9 -201
q-1 -84 1.5 -133t11.5 -86q7 -23 6 -31.5t-11 -13.5q-4 -3 -8 -3q-5 0 -14 9z" />
    <glyph glyph-name="u" unicode="u" horiz-adv-x="424" 
d="M217 -81q-30 13 -41 61q-3 15 -4.5 38.5t-1.5 50.5t2 54t5 48v3q-2 0 -31 -46q-51 -85 -79 -121t-48 -42q-10 -2 -12 -2q-20 0 -29 17.5t-11 33.5q-3 17 -0.5 44t8.5 57.5t16 61.5t22 57q18 40 36 40q6 0 16 -8q10 -11 7.5 -23.5t-16.5 -17.5q-6 -2 -15 -28t-16.5 -59
t-12 -65.5t-1.5 -47.5l2 -12l12 13q17 18 56.5 82t93.5 158q17 29 25.5 39.5t17.5 10.5q14 0 20 -14q3 -7 2.5 -16.5t-5.5 -38.5q-8 -48 -13 -94.5t-5.5 -84.5t2 -65t9.5 -36q3 -4 8 -4q12 0 32.5 20t41.5 46t38.5 50t23.5 33q25 38 35 48.5t19 10.5q13 0 20 -13.5t-2 -21.5
q-2 -2 -14 -18.5t-26 -37.5q-28 -42 -59.5 -80.5t-50.5 -54.5q-33 -28 -63 -28q-6 0 -14 2z" />
    <glyph glyph-name="v" unicode="v" horiz-adv-x="305" 
d="M-10 -66q-8 3 -16 12.5t-10 19.5q-4 14 -3.5 45.5t5.5 60.5q5 31 16 69t24 73.5t25.5 63t21.5 36.5q7 7 17 7q9 0 15 -6q13 -14 -4 -34q-6 -7 -15 -27t-18.5 -46.5t-18 -56t-13.5 -55.5q-6 -30 -9 -60.5t-1 -37.5q1 -2 4.5 1t11 14.5t21 33.5t34.5 56q15 24 24.5 38
t16.5 22t12.5 10.5t11.5 2.5q14 0 21 -10q15 -17 22 -23t17 -9q10 -2 13 -2q10 0 21 5t29 17q10 7 19.5 12t12.5 6q8 0 16 -6t8 -15q0 -8 -7.5 -16t-30.5 -23q-37 -25 -69 -25q-28 0 -58 21q-6 5 -11 8t-5 2q-1 -1 -13.5 -21t-29.5 -49q-34 -55 -50.5 -78.5t-25.5 -28.5
q-5 -4 -12.5 -6t-13.5 -2q-2 0 -3 0.5t-2 0.5z" />
    <glyph glyph-name="w" unicode="w" horiz-adv-x="491" 
d="M168 -156q-4 2 -9 8.5t-9 13.5q-3 6 -4 10t-2 11.5t-1 20v33.5q0 57 5 87q5 25 5 28q-1 0 -7.5 -9.5t-15.5 -23.5q-35 -51 -57 -74t-42 -28q-4 -1 -10 -1q-7 0 -16 4q-22 10 -30.5 37t-6.5 78q4 98 51 193q27 56 47 56q9 0 15 -6.5t6 -16.5q0 -9 -11 -20q-7 -6 -15 -21
t-16 -35t-14.5 -43.5t-11.5 -46.5q-4 -19 -5.5 -41t-1 -41t3 -32.5t6.5 -16.5q7 -4 34.5 31t72.5 104q14 22 26.5 39t16.5 20q8 7 17 7t17 -8q7 -8 6.5 -21.5t-8.5 -55.5q-9 -49 -14 -91t-3 -70q0 -14 1 -24t3 -12q3 -3 18.5 16.5t31.5 46.5q8 14 21 40.5t24 49.5
q21 46 31.5 61t25.5 15q4 0 8.5 -0.5t9.5 -1.5t8.5 -1.5t7.5 -0.5q13 0 26.5 7t42.5 27q41 27 53 27q6 0 10 -4q5 -5 6.5 -13t-2.5 -14q-3 -4 -16.5 -14.5t-30 -21.5t-33 -20.5t-24.5 -12.5q-10 -4 -16.5 -5t-14.5 -1h-9l-20 2l-26 -55q-64 -137 -105 -165q-16 -11 -31 -11
q-11 0 -19 6z" />
    <glyph glyph-name="x" unicode="x" horiz-adv-x="292" 
d="M-108 -325q-11 14 -8.5 38.5t17.5 66.5q13 33 38 86.5t53 105.5l29 56l-11 39q-8 27 -13.5 48.5t-9 41.5t-5 41t-2.5 46q-2 51 0.5 69t13.5 25q4 3 11 3q11 0 17 -11q3 -6 3 -10.5t-3 -16.5q-7 -24 -1.5 -76t19.5 -107l10 -38l37 63q58 100 104.5 162.5t73.5 79.5
q11 6 23 6t20.5 -6.5t8.5 -19.5t-6 -15.5t-17 -2.5t-14.5 -2t-11.5 -11q-15 -17 -36 -46t-44.5 -66t-49 -79t-49.5 -86l-18 -33l7 -20q3 -7 10.5 -23t18 -32.5t21.5 -29t20 -12.5q5 0 18 11q8 7 18 7q15 0 18 -14q2 -8 -2.5 -16t-12.5 -15t-18 -11.5t-21 -4.5q-14 0 -26.5 6
t-26.5 20q-6 6 -13 16t-14 21t-12.5 20.5t-7.5 15.5q-2 7 -4 7t-13 -21t-25 -50q-22 -44 -37 -76.5t-24.5 -56.5t-13.5 -41.5t-4 -31.5q0 -16 -4 -22t-15 -6q-8 0 -16 8z" />
    <glyph glyph-name="y" unicode="y" horiz-adv-x="353" 
d="M-125 -458q-23 14 -17 52q4 26 27.5 69.5t59.5 95.5t80.5 107.5t91.5 104.5l29 29l9 48q4 20 7.5 42.5t6.5 42.5t4 35.5t1 20.5t-2 5t-13 -20q-37 -63 -67 -103.5t-47 -52.5q-13 -9 -29 -9q-13 0 -21.5 6.5t-12.5 16.5t-5.5 22t-1.5 23q0 25 8 61t19.5 70t24.5 60t23 31
q6 2 9 2q14 0 19 -12q2 -8 0 -14.5t-11 -18.5q-9 -13 -17 -34t-14 -44.5t-10 -46.5t-5 -40l-1 -37l15 16q13 14 36.5 49.5t55.5 89.5q14 23 23 37t16 21.5t12.5 10t11.5 2.5q21 0 28 -21.5t2 -75.5q-3 -32 -6.5 -62.5t-8.5 -53.5l-3 -13l15 13q6 5 25.5 22t40.5 37
q21 19 38.5 34.5t21.5 17.5q9 6 18 6q10 0 16 -9q5 -6 6.5 -9.5t-3 -9.5t-16.5 -16.5t-34 -30.5q-13 -12 -39 -35.5t-49 -45.5l-56 -52l-6 -24q-12 -46 -31.5 -102.5t-46.5 -111t-60 -102t-72 -75.5q-38 -27 -68 -27q-14 0 -27 8zM-63 -408q25 16 47.5 43t41.5 58.5
t34.5 63.5t26.5 59q6 15 11.5 30.5t10.5 28.5t7.5 22l2.5 9q-1 0 -10 -10t-22 -25.5t-27.5 -33t-25.5 -31.5q-9 -12 -31 -42.5t-44.5 -66t-40 -68t-17.5 -47.5q0 -2 4 -2q11 0 32 12z" />
    <glyph glyph-name="z" unicode="z" horiz-adv-x="526" 
d="M32 -408q-55 20 -21 92q11 22 27.5 45.5t43.5 53t66 67.5t95 89l35 32l-1 22q-4 42 -25.5 60t-61.5 18q-18 0 -39 -3.5t-43 -9.5q-33 -10 -47 -10q-8 0 -15 5q-6 6 -6 18q0 8 6 16.5t31 35.5q21 23 35.5 39t25 28t18.5 21t15 19q17 22 25 35.5t5 13.5t-14 -5.5t-25 -13
t-28 -16.5t-23 -15q-14 -10 -29.5 -24t-29.5 -29t-24.5 -28.5t-15.5 -22.5l-7 -14t-5 -7q-6 -2 -8 -2q-8 0 -15.5 6t-7.5 15q0 10 11 28t28 38.5t38 40.5t42 35q83 59 127 59q23 0 32 -18q5 -11 4.5 -18.5t-5.5 -21.5q-8 -21 -31 -52t-72 -87q-17 -19 -15 -18q8 5 29 6t31 1
q51 0 84.5 -23.5t44.5 -68.5l4 -16l74 63q35 30 59 50t39 31.5t23.5 16t13.5 4.5q21 0 21 -22q0 -7 -4.5 -12t-21.5 -18q-11 -8 -23 -18t-29 -24t-40 -33.5t-56 -48.5l-56 -49l-4 -21q-9 -50 -35 -104.5t-59.5 -102t-71.5 -82t-72 -44.5q-19 -6 -28 -6q-8 0 -19 4zM81 -357
q22 11 46.5 34.5t48 55t44.5 67.5t34 72l8 21l-9 -6q-7 -5 -28 -24.5t-45 -43.5t-46 -46.5t-31 -33.5q-32 -38 -47.5 -65t-11.5 -37q1 -4 8 -4q10 0 29 10z" />
    <glyph glyph-name="braceleft" unicode="{" 
d="M112 -399q-21 10 -35.5 42.5t-23 80.5t-9 109t7.5 129q2 18 6.5 54t9.5 68q11 80 14.5 125.5t1.5 82.5q-1 42 3 57q2 5 11.5 22t21.5 35q23 34 41.5 65t35 64t32.5 72t35 90q14 37 24 62t18.5 42t16 28.5t16.5 20.5q24 24 47 24q7 0 11 -1q19 -3 35.5 -16t23.5 -30
q5 -14 0.5 -21.5t-13.5 -7.5q-13 0 -23 14q-15 21 -32 21q-8 0 -20 -13t-21 -32q-4 -8 -15 -36.5t-23 -60.5q-19 -54 -35.5 -94.5t-33.5 -75t-36 -66.5t-43 -69q-13 -19 -22 -34t-9 -17v-55q0 -21 -0.5 -39t-2 -39t-5 -47.5t-8.5 -64.5q-6 -46 -10 -75.5t-6 -50.5t-3.5 -37
t-2.5 -35q-2 -45 0.5 -96t8.5 -83q5 -20 14.5 -44t14.5 -27q2 -2 13 6t18 8q8 0 12 -6q6 -7 5 -16.5t-7.5 -18t-17 -14.5t-22.5 -6q-7 0 -19 6z" />
    <glyph glyph-name="uniE000" unicode="&#xe000;" horiz-adv-x="202" 
d="M138 620q18 -2 16 -20q-9 -70 -15 -129.5t-11 -111t-9 -96.5t-7 -86q-5 -66 -10.5 -126t-13.5 -129q-1 -8 -7 -12t-14 -4q-18 2 -16 20q8 68 13.5 128t10.5 126q3 41 7 86t9 96.5t11 111t15 130.5q2 18 20 16h1z" />
    <glyph glyph-name="braceright" unicode="}" horiz-adv-x="241" 
d="M-7 -371q-17 6 -17 23q0 6 8 13t16 7q14 0 39 44q14 25 24 53t17 65.5t12 88t8 119.5q2 56 5.5 100t8 82.5t11.5 75t17 76.5q5 20 10 42.5t8 34.5l7 29l-23 47l1 52q0 17 0.5 29t2 25t3.5 28t6 36q18 99 8 99q-2 0 -6.5 -4t-9.5 -9q-12 -12 -20 -12q-6 0 -12 6
q-10 9 -4.5 22.5t22.5 24.5q19 13 36 13q20 0 32 -18q8 -12 7.5 -37.5t-10.5 -87.5q-5 -37 -7.5 -62.5t-2.5 -51.5v-27t0.5 -16t3 -11l6.5 -13q10 -22 10 -34q0 -5 -4.5 -28t-11.5 -51q-13 -54 -21.5 -95t-13.5 -83.5t-8.5 -95t-7.5 -129.5q-5 -88 -15 -154.5t-27 -106.5
q-4 -10 -14 -29t-23.5 -38t-28.5 -33t-29 -14q-5 0 -13 5z" />
    <glyph glyph-name="asciitilde" unicode="~" horiz-adv-x="574" 
d="M214 72q-46 14 -24 81q3 8 13 29.5t21 44.5q11 22 18.5 38t6.5 16q-7 0 -31.5 -15t-51 -35.5t-48 -40t-23.5 -28.5q-1 -7 -6 -10t-11 -3q-14 0 -20 13q-2 7 -1.5 11t4.5 13q9 16 34.5 39.5t56 46t61 39.5t48.5 20q11 0 22.5 -3.5t15.5 -15.5q3 -6 3 -12.5t-3.5 -17
t-11 -27t-20.5 -42.5q-44 -92 -38 -98q1 -1 3 -1q10 0 42.5 12.5t72 30.5t79 38t63.5 36q12 8 21.5 12.5t13.5 4.5q13 0 17.5 -11.5t-3.5 -23.5q-5 -8 -26.5 -22t-51.5 -30t-65 -32t-67 -29.5t-58.5 -22t-38.5 -8.5q-6 0 -17 3z" />
    <glyph glyph-name="uni00A0" unicode="&#xa0;" 
 />
    <glyph glyph-name="exclamdown" unicode="&#xa1;" horiz-adv-x="213" 
d="M-33 -311q-10 3 -12.5 11t-2.5 34q0 23 1 29t6 9q3 2 7.5 3t7.5 1q5 -1 8 5.5t13 35.5q17 53 38.5 128.5t42.5 158t40 163t31 143.5q6 30 10 52.5t6.5 40.5t3.5 33t1 31q1 29 3.5 38.5t11.5 9.5h4q13 -1 18 -12t6 -38q2 -26 -1.5 -55t-14.5 -85q-13 -69 -32 -153.5
t-41 -169.5t-44.5 -164t-42.5 -136q-21 -63 -35 -88.5t-28 -25.5q-2 0 -2.5 0.5t-2.5 0.5zM186 726q-7 4 -11 9q-2 5 -1 8.5t11 21.5q8 14 23 14q3 0 11 -2q16 -5 18.5 -17t-9.5 -23q-6 -5 -15.5 -9t-17.5 -4q-3 0 -9 2z" />
    <glyph glyph-name="sterling" unicode="&#xa3;" horiz-adv-x="490" 
d="M342 -40q-25 8 -55.5 16t-61 14t-59.5 10t-50 5q-7 0 -12 0.5t-10 0.5q-11 0 -19 -1.5t-18 -3.5q-7 -2 -12.5 -3t-10.5 -1q-16 0 -21 13q-2 11 3 18.5t24 22.5q27 21 57 53t47 58q8 11 18 29.5t19.5 36t16 30.5t5.5 14t-10.5 -2t-21.5 -8t-23 -10t-14 -8q-7 -6 -15 -6
q-13 0 -20 12t4 23q5 5 32.5 18t61.5 25q21 8 25 11.5t9 14.5q8 22 21.5 67.5t24.5 90.5q10 40 18 69t16 51t16 38.5t17 30.5q23 33 47 33q23 0 32 -31q4 -14 1 -36.5t-16 -72.5q-8 -33 -11 -48t-2 -23q5 -26 -16 -26q-18 0 -24 19q-1 5 -1.5 10.5t1 15t5 26t10.5 44.5
q5 20 8 36t3 20t-1 4q-5 0 -13.5 -22.5t-17.5 -51t-16.5 -55t-9.5 -34.5q-10 -36 -19 -70.5t-13 -48.5q-5 -13 -7.5 -22.5t-1.5 -10.5t8.5 0.5t18.5 3.5q13 3 28 4t29 1q15 0 27.5 -1t19.5 -4q22 -8 31 -20t3 -24q-4 -9 -15 -9q-6 0 -22 7q-14 7 -43 7q-20 0 -45.5 -4
t-54.5 -12q-8 -2 -11 -14q-20 -53 -54.5 -111t-73.5 -99l-18 -18l35 -4q26 -3 59.5 -9t66 -13.5t59.5 -15.5t40 -14q25 -11 17 -30q-2 -5 -9 -10t-11 -4q-3 1 -7 2q-7 1 -18 6z" />
    <glyph glyph-name="copyright" unicode="&#xa9;" horiz-adv-x="637" 
d="M246 -130q-49 7 -85.5 32.5t-61 62t-36.5 81t-12 89.5q0 57 12.5 105.5t41.5 105.5q28 55 64 100.5t76.5 79t84 53.5t85.5 23q23 0 40 -2t38 -11q28 -14 37.5 -30t-4.5 -26l-8 -5l24 -26q60 -63 72 -147q7 -42 -4.5 -96t-36 -110.5t-59.5 -109t-77 -90.5
q-87 -81 -164 -81q-7 0 -13.5 0.5t-13.5 1.5zM330 -73q34 16 69 48.5t66 75t55.5 90.5t37.5 96q20 78 7 133.5t-64 108.5q-24 24 -29 33t1 20q2 6 12 8q6 2 5 3t-13 8q-19 10 -46 10q-30 0 -66 -14t-73 -42q-65 -49 -114 -123t-71 -155q-9 -34 -10.5 -77t5.5 -75
q12 -59 44.5 -98.5t81.5 -55.5q10 -4 21 -5t28 -1q20 1 29 3t24 9zM297 93q-23 11 -29 28.5t-7 40.5q-1 59 31 127q31 60 66 84q13 9 19 11t21 2q14 0 20 -2t13 -7q11 -8 18.5 -22t11.5 -29t3 -27.5t-9 -17.5q-4 -3 -8 -3q-8 0 -15 8.5t-9 22.5q-5 37 -24 37
q-11 0 -29 -18.5t-30 -41.5q-13 -24 -21.5 -50t-11.5 -47.5t-1 -37t11 -18.5q2 -1 6 -1q9 0 20.5 9t33.5 32q20 20 27.5 26t13.5 6q19 0 19 -20q0 -11 -13 -28t-31.5 -33t-38 -27.5t-32.5 -11.5q-4 0 -11 2.5t-14 5.5z" />
    <glyph glyph-name="uni00AD" unicode="&#xad;" horiz-adv-x="0" 
 />
    <glyph glyph-name="plusminus" unicode="&#xb1;" horiz-adv-x="502" 
d="M36 -50q-5 5 -4.5 14.5t5.5 15.5q11 10 53.5 24t94 26.5t99.5 21t70 8.5q16 0 28 -1.5t17 -5.5q8 -5 8 -15q0 -12 -10 -16.5t-45 -6.5t-72.5 -8t-84.5 -17q-20 -5 -40.5 -10.5t-38.5 -11t-31 -10t-19 -7.5q-12 -6 -18 -6q-7 0 -12 5zM225 171q-10 11 -7 34t20 67
q5 11 8 20t2 9q0 1 -11 -2.5t-25 -8.5q-22 -7 -30 -11t-13 -10q-7 -10 -17 -10q-8 0 -14.5 6t-6.5 17q0 12 9 21q5 4 16 9.5t26 11t31 11t31 9.5l27 7l11 21q14 28 29 54.5t22 33.5q8 9 20 9q8 0 13 -5q5 -7 4 -17.5t-8 -17.5q-4 -3 -10.5 -14t-13.5 -23l-15 -29h25
q22 0 35 -3t25 -11q23 -16 15 -32q-3 -11 -16 -11q-6 0 -19 5q-12 5 -23 6t-24 1q-15 0 -23 -0.5t-13 -4.5t-8 -11t-8 -21q-16 -41 -22 -61t-8 -44q0 -4 -6 -8.5t-12 -4.5t-16 8z" />
    <glyph glyph-name="questiondown" unicode="&#xbf;" horiz-adv-x="445" 
d="M42 -170q-17 6 -25.5 16.5t-13.5 30.5q-3 12 -1.5 27t7.5 38.5t18.5 58.5t32.5 87q24 63 50.5 140t50 147.5t40 126t19.5 76.5q5 27 23 27q21 0 21 -29q0 -13 -15 -66.5t-38.5 -126.5t-52 -156t-56.5 -155q-17 -45 -27.5 -74.5t-16.5 -49t-7.5 -32t-1.5 -22.5l1 -18
l13 -1q21 0 49 17.5t55.5 42t51.5 49.5t36 40q100 125 105 217q1 26 -2.5 35t-14.5 18q-7 6 -21 6q-16 0 -42 -9q-18 -6 -24 -6q-5 0 -8 2q-7 3 -9 12t3 17q3 5 14 9.5t24.5 7.5t25.5 5t18 2q54 0 73 -47.5t-7 -125.5q-14 -42 -47 -95.5t-76 -103t-91.5 -87.5t-93.5 -50
q-9 -2 -14 -3.5t-9 -1.5t-8 1t-9 3zM266 735q-11 3 -19.5 11t-8.5 14t6.5 12t14.5 8q4 0 9.5 1t8.5 2q12 0 20.5 -8.5t8.5 -20.5q0 -23 -24 -23q-4 0 -7.5 1t-8.5 3z" />
    <glyph glyph-name="multiply" unicode="&#xd7;" horiz-adv-x="442" 
d="M43 27q-5 8 -3 16q1 3 25 27l59 59l83 78l-14 13q-17 14 -37.5 26t-27.5 10q-10 0 -17.5 5.5t-7.5 16.5q0 21 21 21q33 0 91 -44q20 -15 24 -15q1 0 5 2q2 2 12.5 11t23.5 20q50 44 71 59.5t32 15.5q4 0 6 -1q8 -3 10.5 -7.5t2.5 -13.5q0 -10 -9 -20t-17 -10
q-3 0 -17.5 -11.5t-32 -26.5t-32.5 -28.5t-20 -18.5q-2 -3 0.5 -8t13.5 -20q15 -21 27 -42.5t18.5 -40.5t7 -33t-5.5 -20t-12 -6q-14 0 -26 34q-5 14 -13.5 31t-17.5 32t-17 25t-11 10q-2 0 -23 -19.5t-50 -47.5q-29 -27 -53.5 -49.5t-30.5 -27.5q-15 -10 -24 -10
q-8 0 -14 8z" />
    <glyph glyph-name="germandbls" unicode="&#xdf;" horiz-adv-x="393" 
d="M146 -434q-30 17 -53 74t-31 136q-2 14 -3 30t-3 24l-2 19l-32 -36q-13 -14 -24.5 -25t-15.5 -12q-2 -1 -6 -1q-10 0 -15.5 8.5t-3.5 20.5q1 3 10 14t20 24q28 30 42.5 46.5t21 25.5t7.5 13.5t1 11.5q0 8 1.5 25.5t3.5 34.5q2 14 3.5 26t3.5 26t5.5 32t7.5 44q1 10 -5 12
q-8 2 -12.5 10.5t-2.5 16.5q1 4 8 15.5t16 24.5q8 11 13 19t9.5 17.5t9.5 22.5t12 34q5 15 16.5 47t28 71.5t36.5 81t41.5 75.5t44.5 56t44 22q15 0 24 -12t8 -35q-1 -44 -43.5 -123.5t-123.5 -188.5q-11 -15 -18.5 -25.5t-6.5 -10.5q2 1 12.5 7l24.5 14q65 36 102 36
q16 0 25 -6q22 -12 22 -39q0 -19 -11 -43.5t-34 -59t-59.5 -79.5t-89.5 -104q-22 -24 -40 -45t-23 -26q-8 -9 -9.5 -14t-1.5 -25q0 -56 6.5 -105.5t17 -87.5t24.5 -60t30 -22q15 0 20.5 -11t-5.5 -22q-6 -6 -21 -6q-16 0 -27 7zM176 53q57 64 89 107.5t48 77.5q8 19 9.5 25
t-6.5 6h-5q-13 -2 -40.5 -16t-55.5 -31t-50 -33t-25 -24q-3 -7 -8.5 -33.5t-11 -57t-9.5 -57.5t-4 -35q0 -4 1 -4q2 0 15 14.5t53 60.5zM235 410q35 53 61 102.5t31 73.5l2 10l-11 -13q-9 -10 -21 -28.5t-25.5 -42t-27 -51t-25.5 -56.5q-17 -38 -15 -38q3 0 31 43z" />
    <glyph glyph-name="divide" unicode="&#xf7;" horiz-adv-x="415" 
d="M184 10q-9 6 -9 18q0 14 11.5 24t22.5 10q7 0 12 -5q5 -6 8.5 -16t1.5 -17q-2 -9 -11 -14t-19 -5q-12 0 -17 5zM64 135q-5 6 -4.5 16t6.5 16t22 13.5t38.5 16t48.5 17t51 14.5q19 5 39.5 7t39.5 2q20 0 36 -3t30 -17q5 -5 4 -13.5t-7 -14.5q-5 -5 -10 -5t-10 2
q-6 2 -19 3.5t-26 2.5q-22 0 -34 -1t-35 -6q-24 -5 -48 -12t-43.5 -14t-33.5 -13.5t-18 -11.5q-3 -5 -12 -5t-15 6zM197 361q-14 7 -12.5 24t15.5 31t29 14q16 0 20 -14q6 -16 -9 -36q-16 -21 -33 -21q-4 0 -10 2z" />
    <glyph glyph-name="Euro" unicode="&#x20ac;" horiz-adv-x="411" 
d="M197 -20q-13 5 -20.5 16t-11 24.5t-4 27.5t-0.5 25q0 28 -0.5 36t-3.5 6q-4 -1 -13.5 -7.5t-20 -15t-20.5 -17t-15 -13.5q-15 -16 -24 -16q-6 0 -11 6q-15 17 6 39q11 12 35 30.5t51 35.5l29 18l18 72l-52 -52q-29 -29 -41.5 -40.5t-20.5 -11.5q-5 0 -10 5q-11 11 8 38
q5 7 19 21.5t30.5 32t34 34.5t30.5 29l22 20l14 47l13 39t22 61t29 70.5t33.5 66.5t34.5 49.5t33 19.5q11 0 20 -9q6 -6 8.5 -16t0 -27t-10.5 -43.5t-22 -66.5q-9 -25 -15 -45.5t-6 -25.5q0 -9 -6 -16.5t-14 -7.5q-5 0 -15 8q-5 6 -6.5 9.5t0.5 13.5q1 6 7.5 28t14.5 47
q8 24 13 42t5 19q-1 0 -6.5 -10t-13 -25t-15.5 -31.5t-13 -29.5t-12 -31.5t-13.5 -36t-11 -30.5t-4.5 -15q0 -4 13 5q44 27 63 27q10 0 16 -8t1 -17q-2 -3 -14 -12t-26 -18q-15 -9 -31.5 -20.5t-25.5 -18.5l-21 -17l-12 -47q-5 -20 -8 -33.5t-3 -14.5t9 1.5t22 7.5
q29 10 40 10q10 0 15 -5q22 -22 -26 -41q-10 -4 -24 -9t-24 -9l-25 -10l-3 -19q-7 -38 -6.5 -66.5t7.5 -37.5q3 -5 5 -5q7 0 17.5 11t20.5 25.5t18.5 28t11.5 18.5q9 16 17 29.5t11 17.5q5 8 15 8q13 0 19 -16q1 -3 -2.5 -13.5t-9.5 -24t-14 -29t-17 -28.5
q-6 -9 -15.5 -21.5t-21 -24t-24.5 -19t-26 -7.5q-9 0 -21 5z" />
    <glyph glyph-name="notequal" unicode="&#x2260;" horiz-adv-x="520" 
d="M90 -75q-8 8 -8 18t5 31t18 49t31 59q10 16 15.5 27t4.5 11q-3 0 -13 -3t-21 -7.5t-19.5 -9t-10.5 -6.5q-4 -6 -13 -6q-8 0 -15.5 5.5t-7.5 14.5q0 14 19.5 25.5t73.5 28.5q18 5 31 9.5t15 5.5q1 0 8 9t15 22q8 12 19.5 27.5t19.5 25.5q8 11 12 18q3 4 5 7q-1 1 -13 -1.5
t-29 -7.5q-30 -7 -38.5 -11t-17.5 -15q-5 -5 -11 -5q-7 0 -18 6q-15 9 -12 23t22 23q5 2 20.5 7t35.5 10l40 10t33 7q8 2 15.5 3.5t9.5 2.5t12 11.5t22 24.5q30 37 61.5 72.5t58 63.5t46 45.5t25.5 19.5q2 1 6 1q7 0 13 -3.5t8 -8.5q4 -13 -4.5 -27.5t-19.5 -14.5
q-5 0 -24 -18.5t-46 -50.5q-14 -16 -29 -34l-27.5 -33t-20.5 -25t-8 -11q1 0 7 0.5t14 1.5q23 3 43 3q26 0 46.5 -4t28.5 -11q5 -5 5.5 -13.5t-4.5 -13.5q-3 -2 -18.5 -3.5t-50.5 -1.5q-26 -1 -51.5 -2t-36.5 -3l-26 -4l-38 -51q-17 -21 -27.5 -36t-9.5 -16t10 0.5t22 3.5
q35 8 71 12.5t57 4.5q18 0 22.5 -1.5t8.5 -6.5q5 -8 3.5 -16t-8.5 -12q-3 -2 -18.5 -4.5t-35.5 -4.5q-39 -5 -76.5 -12t-69.5 -15l-28 -6l-16 -25q-35 -54 -55 -94.5t-28 -71.5q-5 -17 -8 -21.5t-12 -7.5q-9 0 -15 6z" />
    <glyph glyph-name="lessequal" unicode="&#x2264;" horiz-adv-x="475" 
d="M31 -20q-6 5 -6 15.5t7 15.5q5 4 28 10.5t56 14.5t71.5 16t73.5 14.5t63 10.5t39 4q17 1 22 -12.5t-8 -22.5q-8 -7 -78 -17q-58 -10 -116.5 -21.5t-101.5 -22.5q-19 -5 -27.5 -7t-13.5 -2t-9 4zM338 158q-8 8 -16 13t-23 11t-40.5 15t-69.5 23q-48 15 -62.5 23t-17.5 22
q-4 16 12.5 32t59.5 39q26 14 67.5 34.5t82 40t70.5 33.5t32 14q12 0 18.5 -11t0.5 -20q-2 -2 -21.5 -12t-47.5 -24q-47 -24 -86.5 -44.5t-68 -36t-44.5 -24.5t-16 -11q0 -1 19 -7.5t46 -14.5q51 -17 80.5 -28.5t43.5 -22.5q11 -8 17 -21.5t2 -21.5q-4 -13 -15 -13
q-9 0 -23 12z" />
    <glyph glyph-name="greaterequal" unicode="&#x2265;" horiz-adv-x="411" 
d="M25 -100q-5 6 -5 14t5 13q10 9 46.5 22t81 24.5t86.5 19.5t63 8q20 0 32 -5q28 -15 10 -35q-5 -5 -13 -5h-7t-10 1q-26 0 -56 -4.5t-60.5 -11.5t-60 -16t-53.5 -17q-18 -6 -32.5 -10t-16.5 -4q-4 0 -10 6zM153 53q-6 6 -5 18.5t12.5 37t35 64t61.5 100.5q14 22 23 37.5
t8 16.5q0 1 -13.5 5.5t-32.5 9.5q-60 19 -90 33.5t-38 29.5q-10 18 3 31q8 8 19 8q8 0 15 -5.5t7 -14.5q0 -5 12 -12q5 -3 17.5 -7.5t28.5 -9.5t33 -10t31 -9q34 -9 46 -17.5t12 -24.5q0 -6 -1.5 -12t-7 -16.5t-16 -27t-27.5 -43.5q-20 -32 -32.5 -53t-21.5 -36t-15.5 -27
t-13.5 -26t-13.5 -25.5t-8.5 -13.5q-4 -5 -14 -5t-14 4z" />
    <glyph glyph-name="yen" unicode="&#xa5;" horiz-adv-x="435" 
d="M154 -98q-11 12 -6 49.5t28 119.5q6 20 10 34.5t3 15.5q-1 2 -14 -5t-28.5 -17t-29.5 -20.5t-18 -16.5q-11 -14 -20 -14q-1 0 -7 2q-14 8 -11.5 22.5t19.5 29.5q13 11 40 28t56 33l32 18l17 53q7 22 11.5 37.5t4.5 16.5q-1 1 -8.5 -4t-18 -12.5t-21 -16t-18.5 -14.5
q-7 -6 -14.5 -14t-10.5 -13q-7 -13 -12 -15q-2 -1 -5 -1q-14 0 -19 13q-7 15 11 37t67 59q13 10 28.5 20t23.5 15l20 12l28 81q12 33 20.5 57.5t9.5 26.5t-8 -6t-21 -20q-70 -70 -106 -70q-12 0 -20 7q-38 29 4 154q10 30 21.5 59t22.5 53t21.5 42t17.5 25q6 7 9.5 8.5
t12.5 1.5q9 -1 15 -6t7.5 -11t-0.5 -12t-10 -9q-11 -5 -24.5 -31t-36.5 -89q-9 -25 -16.5 -50.5t-12 -46t-5 -33.5t3.5 -13q2 0 9.5 5.5t17.5 13.5q15 12 37.5 34.5t45 47t41.5 48t29 38.5l10 16t8 13q9 14 22 14q6 0 10 -3q11 -8 10 -18.5t-17 -42.5q-15 -31 -32.5 -74
t-40.5 -110q-8 -21 -14 -38.5t-7 -20.5q-3 -6 -3 -9q1 0 7.5 2t16.5 5q24 8 43 8q21 0 34 -8.5t11 -23.5q-3 -14 -20 -14q-7 0 -11 1t-12 1q-7 0 -20 -3.5t-26.5 -8.5t-25 -10t-16.5 -9q-1 -1 -7.5 -19t-13.5 -39t-12.5 -39.5t-5.5 -21.5q0 -1 7.5 1t18.5 6q51 19 72 19
q16 0 19 -11q2 -7 1 -12t-7.5 -9.5t-20 -10t-37.5 -13.5q-27 -9 -42 -14.5t-22 -10t-9.5 -10t-5.5 -14.5q-20 -69 -33.5 -122t-16.5 -80q-1 -8 -3 -15t-4 -9q-4 -6 -14 -6q-8 0 -14 6z" />
    <glyph glyph-name="cent" unicode="&#xa2;" horiz-adv-x="309" 
d="M135 -126q-9 3 -12.5 17t-3.5 43v37l-12 -3q-14 0 -26.5 5t-20.5 19q-12 21 -11 64t12.5 97.5t32.5 116.5t49 121q63 130 119 140q8 2 11 6.5t11 25.5q11 29 24.5 56.5t20.5 34.5q10 10 19 10q6 0 13 -5q9 -6 9.5 -14.5t-7.5 -14.5q-7 -5 -18 -28.5t-23 -58.5
q-8 -24 -9 -30t3 -15q2 -6 4 -20.5t3 -40.5q1 -22 2.5 -38t3.5 -19q7 -14 1.5 -24t-16.5 -10q-5 0 -13 5q-8 6 -11 15t-5 30q-2 20 -3 20q-2 0 -7.5 -20.5t-21.5 -74.5q-8 -27 -18 -63.5t-19 -71t-16.5 -62t-9.5 -37.5q-3 -11 1 -11q2 0 17.5 15t36.5 35q50 50 58 50
q5 0 12.5 -8t7.5 -14q0 -12 -31 -45t-85 -78q-14 -12 -24.5 -22.5t-11.5 -12.5q-3 -10 -6 -37t-3 -46q0 -29 -4 -34q-5 -7 -15 -7q-2 0 -8 2zM121 22q4 3 6.5 5.5t4.5 8.5t5 17t7 30q8 36 20 82.5t25 94.5t26.5 93.5t25.5 80.5q6 20 9 31.5t1 10.5q-5 -3 -18 -20t-23 -34
q-18 -30 -36 -71t-33 -84.5t-26.5 -87t-16.5 -78.5q-2 -21 -2.5 -48t1.5 -33q2 -5 7 -5t17 7z" />
    <glyph glyph-name="bar" unicode="|" horiz-adv-x="323" 
d="M114 -204q-7 7 -11 24q-4 20 0.5 91t16 170.5t27.5 217.5t35 231q11 61 22.5 117t23 101t22 75.5t18.5 40.5q6 8 16 8q8 0 14 -6q5 -5 4.5 -11t-9.5 -31q-20 -58 -42.5 -169.5t-48.5 -287.5q-13 -88 -23.5 -169t-18 -150t-11.5 -123t-4 -87q0 -23 -0.5 -30t-4.5 -11
q-5 -5 -13 -5t-13 4z" />
    <glyph glyph-name="Odieresis" unicode="&#xd6;" horiz-adv-x="426" 
d="M33 195q0 35 11 77.5t28.5 84.5t38.5 81t41 67q7 10 11 16t7 14.5t6.5 21t8.5 34.5q26 104 46 147t41 43q23 0 21 -21v-6q0 -2 -3 -6.5t-6 -9.5q-7 -9 -16.5 -31.5t-17.5 -48t-14 -48t-7 -31.5q0 -2 10 -2h9h4q111 0 111 -343q0 -90 -7.5 -178.5t-28.5 -176.5
q-27 -108 -64.5 -166t-80.5 -58q-36 0 -57 28t-32.5 67t-15 80t-3.5 66q1 51 5.5 110.5t12.5 110.5l2 10h-16q-29 0 -37 22t-8 46zM120 -105q0 -20 1.5 -46.5t6.5 -53.5t13.5 -50.5t23.5 -35.5q8 -8 15 -8q6 0 13 4q14 7 29 29t28.5 55t25 75.5t20.5 90.5q12 66 17.5 136
t5.5 138q0 53 -3.5 100.5t-10 86.5t-16 67t-21.5 40q-7 9 -18 9q-14 0 -31 -18q-6 -6 -14.5 -39.5t-18 -81t-19.5 -103.5t-18 -107t-14 -90t-8 -53q-4 -30 -5.5 -70t-1.5 -75zM72 190q0 -26 26 -26q2 0 2 2t2.5 18t6.5 39t9 50.5t9.5 52.5t8 43.5t5.5 24.5q-1 0 -5.5 -8
t-10.5 -21t-12 -27t-11 -26q-14 -35 -22 -68.5t-8 -53.5zM198 858q13 33 34 33q5 0 11 -3q5 -4 6.5 -8t1.5 -16q0 -31 -24 -41q-8 -4 -12 -4q-1 0 -2 1q-2 0 -6 2q-19 9 -9 36zM309 875q11 25 33 25q18 0 21 -26q1 -14 -4.5 -24.5t-15.5 -14.5q-7 -3 -12 -3q-4 0 -12 3
q-3 1 -6.5 5t-5.5 9q-3 8 -3 12t5 14z" />
    <glyph glyph-name="Adieresis" unicode="&#xc4;" horiz-adv-x="746" 
d="M243 664q-7 7 -6.5 19t6 23.5t15 20t19.5 8.5q17 0 22.5 -12.5t-6.5 -22.5q-7 -6 -7 -16q0 -11 -8.5 -18.5t-18.5 -7.5t-16 6zM327 672q-7 5 -9 16q-3 17 8.5 36.5t24.5 19.5q19 0 22 -33q2 -17 0.5 -21t-9.5 -12q-11 -11 -22 -11q-7 0 -15 5zM475 -269q-85 33 -112 254
q-4 34 -6 80t-1 96t3.5 100t7.5 92q2 16 3 27.5t0 11.5q0 2 -7 -14q-9 -25 -29 -72t-43 -99.5t-46.5 -102.5t-39.5 -82q-46 -93 -75 -132t-52 -39q-17 0 -26.5 11t-14.5 26t-6 31.5t-1 28.5v5q0 54 13 121.5t35 136.5t51.5 134t62.5 115q11 16 28 37t38 40.5t43.5 33
t44.5 13.5q19 0 33 -11q8 -6 10 -6q1 2 5.5 14.5t10.5 29t11.5 33.5t8.5 27q9 34 16.5 50t15.5 20q6 2 9 2q15 0 21 -13q2 -3 2 -6.5t-1.5 -10t-5 -18t-9.5 -30.5q-21 -64 -36.5 -148.5t-24.5 -174t-10.5 -177.5t5.5 -159q2 -18 7.5 -56.5t17 -78.5t30 -70t45.5 -30
q25 0 48.5 18.5t45 48t40 66t33.5 72t25.5 66t15.5 48.5q8 24 12.5 38t7.5 21.5t5.5 10.5t5.5 4q7 4 13 4q5 0 11 -6q4 -4 5.5 -8.5t0 -13.5t-5.5 -24t-11 -38q-11 -36 -33 -95.5t-54.5 -117t-74 -99t-91.5 -41.5q-16 0 -31 6zM120 -43q28 48 67.5 131t84.5 188
q17 39 33.5 79.5t29.5 73.5t21.5 55t8.5 24q0 8 -4.5 19.5t-8.5 13.5q-2 1 -6 1q-19 0 -52.5 -31t-65.5 -79q-23 -34 -45 -79.5t-41 -96.5t-34.5 -105t-24.5 -107q-2 -12 -4 -32t-2.5 -40t-0.5 -36.5t1 -23.5l2 -12l11 12q5 5 13.5 18t16.5 27z" />
    <glyph glyph-name="Udieresis" unicode="&#xdc;" horiz-adv-x="542" 
d="M330 770q-7 4 -13 15q-3 8 -3 13t2 16q8 33 29 33q11 0 15 -4t6 -18q4 -24 2.5 -32.5t-9.5 -16.5q-10 -9 -18 -9q-5 0 -11 3zM416 782q-11 14 -3 43q8 25 24 25q9 0 18 -9q6 -5 7.5 -10t1.5 -14q0 -12 -5.5 -25.5t-11.5 -16.5q-8 -2 -12 -2q-11 0 -19 9zM406 -451
q-3 2 -7.5 7.5t-8.5 12.5q-3 6 -4.5 10.5t-2.5 14.5t-0.5 29t0.5 53q0 50 4 122t11 160.5t17.5 190.5t23.5 212q2 11 2.5 21t1.5 17q0 9 1 16q-4 -9 -8 -19q-3 -9 -8 -21t-10 -26q-33 -85 -69.5 -172t-71 -161t-63.5 -129.5t-46 -78.5q-23 -32 -48 -32q-18 0 -33 20
q-16 22 -25.5 72t-11.5 119.5t3 153.5t18 174q17 118 42.5 216t57.5 167q17 34 29 48t24 14q22 0 28 -21q8 -29 -3 -38q-5 -5 -15 -5q-7 0 -9 3q-1 3 -4 3t-16 -31q-21 -51 -39 -117.5t-32 -140t-23.5 -150t-13 -148t-1.5 -134.5t12 -109q9 -48 16 -48q5 0 24 33.5t45 86.5
t56 117.5t56 127.5q31 75 71 177.5t82 218.5q8 23 16 41t10 21q7 7 16 7q8 0 15 -6t7 -17q0 -5 -3 -27.5t-8 -49.5q-7 -41 -15 -101.5t-16 -131t-16 -148t-15 -153.5t-12 -145.5t-8 -125.5q-1 -29 -2 -57t-0.5 -52t2 -41.5t3.5 -23.5q3 -11 -2.5 -19.5t-14.5 -8.5q-6 0 -9 2
z" />
    <glyph glyph-name="adieresis" unicode="&#xe4;" horiz-adv-x="309" 
d="M3 346q-7 3 -10 10q-5 10 -2.5 29.5t10.5 29.5q5 5 15 5q13 0 20 -7q6 -6 7.5 -16t-0.5 -20.5t-7 -19t-13 -11.5l-10 -2q-2 0 -4 0.5zM96 374q-10 12 -6 27.5t18 23.5q10 5 16 5q10 0 16 -8q5 -5 6 -9t-1 -13q-5 -34 -30 -34q-12 0 -19 8zM154 -65q-11 6 -20 27
q-11 23 -15.5 52.5t-3.5 77.5q1 12 1 21.5v17.5v16q-4 -7 -9 -16q-4 -8 -9.5 -18t-11.5 -21q-16 -31 -27.5 -50.5t-20.5 -30t-16 -14.5t-16 -4q-32 0 -35 56q-1 18 1.5 39t7.5 42.5t12.5 41.5t16.5 35q22 37 52 37q10 0 15 -2t13 -10q13 -11 14 -11q1 1 5.5 10.5t11.5 21.5
q6 13 12.5 24t8.5 14q7 7 16 7q17 0 23 -17q1 -2 -0.5 -14t-3.5 -26q-8 -42 -12 -84t-4 -78t4 -63t11 -39q1 -2 4 -2q10 0 32 33.5t53 93.5q23 45 31.5 56.5t19.5 11.5q4 0 11 -9t7 -14q0 -3 -6.5 -17.5t-15.5 -34t-19.5 -40t-19.5 -35.5q-29 -49 -50 -70t-43 -21
q-14 0 -25 6zM45 111q14 27 21.5 40.5t9.5 20.5t0.5 10t-4.5 8q-7 12 -12 12q-9 0 -21.5 -28.5t-18.5 -63.5q-4 -20 -5 -35t1 -15q1 0 9.5 15t19.5 36z" />
    <glyph glyph-name="odieresis" unicode="&#xf6;" horiz-adv-x="289" 
d="M33 404q-5 6 -6 10.5t1 13.5q2 17 7.5 22.5t21.5 7.5q3 0 5.5 0.5t4.5 0.5q17 0 23.5 -8t-1.5 -20q-7 -7 -9 -15t-12 -14t-18 -6q-10 0 -17 8zM126 410q-7 7 -6.5 17t5.5 19.5t13 16t16 6.5t12 -5q4 -3 5 -8t0 -18q-1 -14 -6.5 -24.5t-21.5 -10.5q-10 0 -17 7zM-8 -118
q-12 6 -22 20.5t-15 31.5q-2 10 -3 27t-0.5 36.5t2.5 39t5 34.5q2 11 9.5 35t17.5 53t23 59.5t27 56t29.5 41.5t29.5 16q8 0 15 -6t7 -13q0 -5 -5 -12.5t-10 -7.5t-15.5 -15.5t-24.5 -42.5l-16 -32h9q21 0 43 -43q15 -29 31.5 -34t46.5 -5q26 1 43 7.5t43 26.5q22 16 31 16
q13 0 19 -10t-1 -20q-4 -7 -15.5 -16.5t-25.5 -18.5t-28.5 -16.5t-25.5 -10.5q-8 -2 -22 -3t-28 -1h-19t-13 2l-9 3l-1 -34q0 -30 -7 -55t-22 -51q-12 -20 -33 -42t-47 -22q-12 0 -23 6zM25 -74q11 7 25.5 29.5t21.5 41.5q11 37 5 85q-2 13 -5 19t-15 17q-7 8 -14 15.5
t-9 12.5l-5 11l-7 -23q-13 -40 -19 -74.5t-7 -66.5q0 -28 1 -37.5t6 -19.5q7 -16 10 -16q2 0 12 6z" />
    <glyph glyph-name="udieresis" unicode="&#xfc;" horiz-adv-x="424" 
d="M48 397q-21 10 -10 44q10 32 31 32q8 0 14 -6q7 -9 12 -22q3 -9 3 -13t-5 -12q-5 -10 -15.5 -18.5t-17.5 -8.5q-4 0 -12 4zM146 406q-6 5 -7.5 10t-1.5 14q0 21 12 40.5t25 19.5q19 0 22 -34q2 -14 1.5 -20t-5.5 -16q-12 -24 -31 -24q-7 0 -15 10zM217 -81q-30 13 -41 61
q-3 15 -4.5 38.5t-1.5 50.5t2 54t5 48v3q-2 0 -31 -46q-51 -85 -79 -121t-48 -42q-10 -2 -12 -2q-20 0 -29 17.5t-11 33.5q-3 17 -0.5 44t8.5 57.5t16 61.5t22 57q18 40 36 40q6 0 16 -8q10 -11 7.5 -23.5t-16.5 -17.5q-6 -2 -15 -28t-16.5 -59t-12 -65.5t-1.5 -47.5l2 -12
l12 13q17 18 56.5 82t93.5 158q17 29 25.5 39.5t17.5 10.5q14 0 20 -14q3 -7 2.5 -16.5t-5.5 -38.5q-8 -48 -13 -94.5t-5.5 -84.5t2 -65t9.5 -36q3 -4 8 -4q12 0 32.5 20t41.5 46t38.5 50t23.5 33q25 38 35 48.5t19 10.5q13 0 20 -13.5t-2 -21.5q-2 -2 -14 -18.5t-26 -37.5
q-28 -42 -59.5 -80.5t-50.5 -54.5q-33 -28 -63 -28q-6 0 -14 2z" />
    <glyph glyph-name="uni000A" unicode="&#xa;" horiz-adv-x="0" 
 />
    </font>
</defs>
</svg>
