<svg id="Instagram" xmlns="http://www.w3.org/2000/svg" xmlns:xlink="http://www.w3.org/1999/xlink" viewBox="0 0 216 432"><defs><style>.cls-1{fill:none;}.cls-2{clip-path:url(#clip-path);}.cls-3{fill:#8c8c8c;}.cls-4{clip-path:url(#clip-path-2);}.cls-5{fill:#383838;}</style><clipPath id="clip-path"><rect class="cls-1" x="56.49" y="56.5" width="103.02" height="103.02" transform="translate(-0.47 0.47) rotate(-0.25)"/></clipPath><clipPath id="clip-path-2"><rect class="cls-1" x="56.49" y="272.73" width="103.02" height="103.02" transform="translate(-1.41 0.47) rotate(-0.25)"/></clipPath></defs><title>Instagram Rotate</title><g class="cls-2"><path class="cls-3" d="M107.82,65.79c13.75-.06,15.38,0,20.82.21a28.12,28.12,0,0,1,9.57,1.72A17.06,17.06,0,0,1,148,77.46,28.5,28.5,0,0,1,149.83,87c0.27,5.43.33,7.06,0.39,20.81s0,15.38-.21,20.82a28.37,28.37,0,0,1-1.73,9.57,17.06,17.06,0,0,1-9.73,9.82,28.45,28.45,0,0,1-9.56,1.81c-5.43.27-7.06,0.33-20.81,0.39s-15.38,0-20.82-.21a28.45,28.45,0,0,1-9.57-1.73A17.06,17.06,0,0,1,68,138.56,28.5,28.5,0,0,1,66.16,129c-0.27-5.43-.33-7.06-0.39-20.81s0-15.38.21-20.82a28.37,28.37,0,0,1,1.73-9.57A17.07,17.07,0,0,1,77.44,68,28.5,28.5,0,0,1,87,66.17c5.44-.27,7.07-0.32,20.82-0.38m0-9.28c-14,.06-15.74.13-21.23,0.4A38,38,0,0,0,74,59.36a26.33,26.33,0,0,0-15,15.13A37.76,37.76,0,0,0,56.71,87c-0.22,5.48-.28,7.24-0.22,21.23s0.13,15.74.4,21.23A38,38,0,0,0,59.34,142a26.34,26.34,0,0,0,15.12,15A37.75,37.75,0,0,0,87,159.3c5.49,0.22,7.25.28,21.24,0.22s15.74-.13,21.23-0.4a38,38,0,0,0,12.49-2.45,26.34,26.34,0,0,0,15-15.13A37.76,37.76,0,0,0,159.28,129c0.22-5.48.28-7.25,0.22-21.24s-0.13-15.74-.4-21.23a38,38,0,0,0-2.45-12.49,26.33,26.33,0,0,0-15.13-15A37.75,37.75,0,0,0,129,56.72c-5.49-.22-7.25-0.28-21.24-0.22"/><path class="cls-3" d="M107.89,81.56a26.45,26.45,0,1,0,26.57,26.33,26.45,26.45,0,0,0-26.57-26.33h0m0.19,43.62a17.16,17.16,0,1,1,17.08-17.23h0a17.16,17.16,0,0,1-17.08,17.23"/><path class="cls-3" d="M141.56,80.37a6.18,6.18,0,1,1-6.21-6.15,6.18,6.18,0,0,1,6.21,6.15h0"/></g><g class="cls-4"><path class="cls-5" d="M107.82,282c13.75-.06,15.38,0,20.82.21A28.12,28.12,0,0,1,138.2,284a17.06,17.06,0,0,1,9.82,9.73,28.5,28.5,0,0,1,1.82,9.56c0.27,5.43.33,7.06,0.39,20.81s0,15.38-.21,20.82a28.37,28.37,0,0,1-1.73,9.57,17.06,17.06,0,0,1-9.73,9.82,28.45,28.45,0,0,1-9.56,1.81c-5.43.27-7.06,0.33-20.81,0.39s-15.38,0-20.82-.21a28.45,28.45,0,0,1-9.57-1.73A17.06,17.06,0,0,1,68,354.79a28.5,28.5,0,0,1-1.82-9.56c-0.27-5.43-.33-7.06-0.39-20.81s0-15.38.21-20.82A28.37,28.37,0,0,1,67.71,294a17.07,17.07,0,0,1,9.73-9.82A28.5,28.5,0,0,1,87,282.4c5.44-.27,7.07-0.32,20.82-0.38m0-9.28c-14,.06-15.74.13-21.23,0.4A38,38,0,0,0,74,275.59a26.33,26.33,0,0,0-15,15.13,37.76,37.76,0,0,0-2.34,12.51c-0.22,5.48-.28,7.24-0.22,21.23s0.13,15.74.4,21.23a38,38,0,0,0,2.45,12.49,26.34,26.34,0,0,0,15.12,15A37.75,37.75,0,0,0,87,375.53c5.49,0.22,7.25.28,21.24,0.22s15.74-.13,21.23-0.4a38,38,0,0,0,12.49-2.45,26.34,26.34,0,0,0,15-15.13,37.76,37.76,0,0,0,2.34-12.51c0.22-5.48.28-7.25,0.22-21.24s-0.13-15.74-.4-21.23a38,38,0,0,0-2.45-12.49,26.33,26.33,0,0,0-15.13-15A37.75,37.75,0,0,0,129,273c-5.49-.22-7.25-0.28-21.24-0.22"/><path class="cls-5" d="M107.89,297.79a26.45,26.45,0,1,0,26.57,26.33,26.45,26.45,0,0,0-26.57-26.33h0m0.19,43.62a17.16,17.16,0,1,1,17.08-17.23h0a17.16,17.16,0,0,1-17.08,17.23"/><path class="cls-5" d="M141.56,296.6a6.18,6.18,0,1,1-6.21-6.15,6.18,6.18,0,0,1,6.21,6.15h0"/></g></svg>