<svg id="Pinterest" xmlns="http://www.w3.org/2000/svg" viewBox="0 0 216 432"><defs><style>.cls-1{fill:#8c8c8c;}.cls-2{fill:#383838;}</style></defs><title>Pinterest Rotate</title><path class="cls-1" d="M100.82,124.74c-2.73,14.29-6.05,28-15.91,35.14-3-21.6,4.47-37.81,8-55-5.95-10,.72-30.16,13.26-25.2,15.44,6.11-13.37,37.22,6,41.11,20.19,4.06,28.43-35,15.91-47.74-18.09-18.35-52.65-.42-48.4,25.86,1,6.43,7.67,8.37,2.65,17.24-11.58-2.57-15-11.7-14.59-23.87,0.72-19.92,17.9-33.87,35.14-35.8,21.8-2.44,42.26,8,45.09,28.51,3.18,23.15-9.84,48.22-33.15,46.41C108.43,130.88,105.77,127.75,100.82,124.74Z"/><path class="cls-2" d="M100.82,341c-2.73,14.29-6.05,28-15.91,35.14-3-21.6,4.47-37.81,8-55-5.95-10,.72-30.16,13.26-25.2,15.44,6.11-13.37,37.22,6,41.11,20.19,4.06,28.43-35,15.91-47.74-18.09-18.35-52.65-.42-48.4,25.86,1,6.43,7.67,8.37,2.65,17.24-11.58-2.57-15-11.7-14.59-23.87,0.72-19.92,17.9-33.87,35.14-35.8,21.8-2.44,42.26,8,45.09,28.51,3.18,23.15-9.84,48.22-33.15,46.41C108.43,347.13,105.77,344,100.82,341Z"/></svg>