<?xml version="1.0" encoding="utf-8"?>
<!-- Generator: Adobe Illustrator 19.2.1, SVG Export Plug-In . SVG Version: 6.00 Build 0)  -->
<svg version="1.1" id="Pinterest" xmlns="http://www.w3.org/2000/svg" xmlns:xlink="http://www.w3.org/1999/xlink" x="0px" y="0px"
	 viewBox="0 0 216 432" style="enable-background:new 0 0 216 432;" xml:space="preserve">
<style type="text/css">
	.st0{fill:#8C8C8C;}
	.st1{fill:#FF3635;}
</style>
<path class="st0" d="M100.8,124.7c-2.7,14.3-6.1,28-15.9,35.1c-3-21.6,4.5-37.8,8-55c-5.9-10,0.7-30.2,13.3-25.2
	c15.4,6.1-13.4,37.2,6,41.1c20.2,4.1,28.4-35,15.9-47.7C110,54.7,75.4,72.6,79.7,98.9c1,6.4,7.7,8.4,2.7,17.2
	c-11.6-2.6-15-11.7-14.6-23.9c0.7-19.9,17.9-33.9,35.1-35.8c21.8-2.4,42.3,8,45.1,28.5c3.2,23.2-9.8,48.2-33.2,46.4
	C108.4,130.9,105.8,127.8,100.8,124.7z"/>
<path class="st1" d="M100.8,341c-2.7,14.3-6.1,28-15.9,35.1c-3-21.6,4.5-37.8,8-55c-5.9-10,0.7-30.2,13.3-25.2
	c15.4,6.1-13.4,37.2,6,41.1c20.2,4.1,28.4-35,15.9-47.7c-18.1-18.4-52.7-0.4-48.4,25.9c1,6.4,7.7,8.4,2.7,17.2
	c-11.6-2.6-15-11.7-14.6-23.9c0.7-19.9,17.9-33.9,35.1-35.8c21.8-2.4,42.3,8,45.1,28.5c3.2,23.1-9.8,48.2-33.2,46.4
	C108.4,347.1,105.8,344,100.8,341z"/>
</svg>
